<?xml version="1.0" encoding="UTF-8" standalone="no"?>
<svg
   xmlns:dc="http://purl.org/dc/elements/1.1/"
   xmlns:cc="http://creativecommons.org/ns#"
   xmlns:rdf="http://www.w3.org/1999/02/22-rdf-syntax-ns#"
   xmlns:svg="http://www.w3.org/2000/svg"
   xmlns="http://www.w3.org/2000/svg"
   xmlns:sodipodi="http://sodipodi.sourceforge.net/DTD/sodipodi-0.dtd"
   xmlns:inkscape="http://www.inkscape.org/namespaces/inkscape"
   version="1.1"
   viewBox="0 0 1229.8455 949.53613"
   id="svg84"
   sodipodi:docname="book-2.svg"
   width="1229.8455"
   height="949.53613"
   inkscape:version="0.92.4 (f8dce91, 2019-08-02)">
  <metadata
     id="metadata90">
    <rdf:RDF>
      <cc:Work
         rdf:about="">
        <dc:format>image/svg+xml</dc:format>
        <dc:type
           rdf:resource="http://purl.org/dc/dcmitype/StillImage" />
        <dc:title></dc:title>
      </cc:Work>
    </rdf:RDF>
  </metadata>
  <defs
     id="defs88">
    <filter
       inkscape:menu="Shadows and Glows"
       inkscape:menu-tooltip="Cut out, add inner shadow and colorize some parts of an image"
       style="color-interpolation-filters:sRGB;"
       inkscape:label="Emergence"
       id="filter1218">
      <feColorMatrix
         values="0 0 0 0 0 0 0 0 0 0 0 0 0 0 0 0.21 0.72 0.07 0 0 "
         result="result1"
         id="feColorMatrix1190" />
      <feColorMatrix
         values="1 0 0 0 0 0 1 0 0 0 0 0 1 0 0 0 0 0 2 0 "
         result="result9"
         id="feColorMatrix1192" />
      <feComposite
         in2="result9"
         in="SourceGraphic"
         operator="in"
         result="result4"
         id="feComposite1194" />
      <feFlood
         result="result2"
         flood-color="rgb(0,0,0)"
         id="feFlood1196" />
      <feComposite
         in2="result9"
         operator="in"
         result="result10"
         id="feComposite1198" />
      <feComposite
         in2="result4"
         operator="atop"
         id="feComposite1200" />
      <feGaussianBlur
         stdDeviation="3"
         result="result8"
         id="feGaussianBlur1202" />
      <feOffset
         dx="3"
         dy="3"
         result="result3"
         in="result8"
         id="feOffset1204" />
      <feFlood
         flood-opacity="1"
         flood-color="rgb(219,173,62)"
         result="result5"
         id="feFlood1206" />
      <feMerge
         result="result6"
         id="feMerge1214">
        <feMergeNode
           in="result5"
           id="feMergeNode1208" />
        <feMergeNode
           in="result3"
           id="feMergeNode1210" />
        <feMergeNode
           in="result4"
           id="feMergeNode1212" />
      </feMerge>
      <feComposite
         in2="SourceGraphic"
         operator="in"
         result="result7"
         id="feComposite1216" />
    </filter>
  </defs>
  <sodipodi:namedview
     pagecolor="#282c3f"
     bordercolor="#666666"
     borderopacity="1"
     objecttolerance="10"
     gridtolerance="10"
     guidetolerance="10"
     inkscape:pageopacity="0.94117647"
     inkscape:pageshadow="2"
     inkscape:window-width="3840"
     inkscape:window-height="2096"
     id="namedview86"
     showgrid="false"
     fit-margin-top="0"
     fit-margin-left="0"
     fit-margin-right="0"
     fit-margin-bottom="0"
     inkscape:zoom="0.6675088"
     inkscape:cx="596.01556"
     inkscape:cy="347.73317"
     inkscape:window-x="0"
     inkscape:window-y="27"
     inkscape:window-maximized="1"
     inkscape:current-layer="svg84"
     inkscape:showpageshadow="false"
     showborder="false" />
  <g
     id="g1014"
     transform="translate(-442.29277,-474.73492)"
     style="filter:url(#filter1218)">
    <g
       style="fill-rule:evenodd;stroke:#004455;stroke-width:6.74590015;stroke-linecap:round"
       id="g10"
       transform="matrix(4.0938094,0,0,4.0993365,-34.828635,-2200.4083)">
      <rect
         style="fill:#004455"
         id="rect4"
         ry="10.66"
         height="200.97"
         width="291.26001"
         y="677.59998"
         x="122.33" />
      <path
         style="fill:#00aa88"
         inkscape:connector-curvature="0"
         id="path6"
         d="m 130.77,877.99 c 36.726,-13.602 77.768,-30.087 113.74,-7.6366 7.8389,4.8923 16.598,-7.4796 16.679,-16.77 l 1.519,-174.18 c 0.0811,-9.29 -7.9309,-13.794 -16.679,-16.77 -29.127,-9.9087 -50.231,-7.369 -109.43,10.964 -8.8267,2.7333 -16.679,2.6248 -16.679,11.915 v 175.7 c 0,9.2903 0.98675,20.424 10.854,16.77 z" />
      <path
         style="fill:#00aa88"
         inkscape:connector-curvature="0"
         id="path8"
         d="m 401.37,877.02 c -36.726,-13.602 -77.768,-30.087 -113.74,-7.6366 -7.8389,4.8923 -16.598,-7.4796 -16.679,-16.77 l -1.519,-174.18 c -0.0811,-9.29 7.9309,-13.794 16.679,-16.77 29.127,-9.9087 50.231,-7.369 109.43,10.964 8.8267,2.7333 16.679,2.6248 16.679,11.915 v 175.7 c 0,9.2903 -0.98675,20.424 -10.854,16.77 z" />
    </g>
    <g
       transform="matrix(3.4544,0,0,3.4544,135.76,-1749.16)"
       style="fill:#55ddff;fill-rule:evenodd"
       id="g44">
      <path
         inkscape:connector-curvature="0"
         id="path12"
         d="m 113.38,689.13 c 41.925,-9.6382 87.366,-35.439 124.7,0 1.0045,0.95356 2.5,1.115 2.5,2.5 0,1.385 -1.481,3.438 -2.5,2.5 -39.262,-36.142 -83.085,-9.807 -124.7,0 -1.3481,0.31771 -2.5,-1.115 -2.5,-2.5 0,-1.385 1.1502,-2.1897 2.5,-2.5 z" />
      <path
         inkscape:connector-curvature="0"
         id="path14"
         d="m 113.38,701.13 c 41.925,-9.6382 87.366,-35.439 124.7,0 1.0045,0.95356 2.5,1.115 2.5,2.5 0,1.385 -1.481,3.438 -2.5,2.5 -39.262,-36.142 -83.085,-9.807 -124.7,0 -1.3481,0.31771 -2.5,-1.115 -2.5,-2.5 0,-1.385 1.1502,-2.1897 2.5,-2.5 z" />
      <path
         inkscape:connector-curvature="0"
         id="path16"
         d="m 175.84,156.14 c -20.759,3.4145 -42.026,11.937 -62.461,16.635 -1.3498,0.31031 -2.5,1.115 -2.5,2.5 0,1.385 1.1519,2.8177 2.5,2.5 20.553,-4.844 41.645,-13.709 62.461,-17.098 v -4.5371 z"
         transform="translate(0,540.36)" />
      <path
         inkscape:connector-curvature="0"
         id="path18"
         d="m 113.38,725.13 c 41.925,-9.6382 87.366,-35.439 124.7,0 1.0045,0.95356 2.5,1.115 2.5,2.5 0,1.385 -1.481,3.438 -2.5,2.5 -39.262,-36.142 -83.085,-9.807 -124.7,0 -1.3481,0.31771 -2.5,-1.115 -2.5,-2.5 0,-1.385 1.1502,-2.1897 2.5,-2.5 z" />
      <path
         inkscape:connector-curvature="0"
         id="path20"
         d="m 113.38,739.13 c 41.925,-9.6382 87.366,-35.439 124.7,0 1.0045,0.95356 2.5,1.115 2.5,2.5 0,1.385 -1.481,3.438 -2.5,2.5 -39.262,-36.142 -83.085,-9.807 -124.7,0 -1.3481,0.31771 -2.5,-1.115 -2.5,-2.5 0,-1.385 1.1502,-2.1897 2.5,-2.5 z" />
      <path
         inkscape:connector-curvature="0"
         id="path22"
         d="m 113.38,751.13 c 41.925,-9.6382 87.366,-35.439 124.7,0 1.0045,0.95356 2.5,1.115 2.5,2.5 0,1.385 -1.481,3.438 -2.5,2.5 -39.262,-36.142 -83.085,-9.807 -124.7,0 -1.3481,0.31771 -2.5,-1.115 -2.5,-2.5 0,-1.385 1.1502,-2.1897 2.5,-2.5 z" />
      <path
         inkscape:connector-curvature="0"
         id="path24"
         d="m 113.38,763.13 c 41.925,-9.6382 87.366,-35.439 124.7,0 1.0045,0.95356 2.5,1.115 2.5,2.5 0,1.385 -1.481,3.438 -2.5,2.5 -39.262,-36.142 -83.085,-9.807 -124.7,0 -1.3481,0.31771 -2.5,-1.115 -2.5,-2.5 0,-1.385 1.1502,-2.1897 2.5,-2.5 z" />
      <path
         inkscape:connector-curvature="0"
         id="path26"
         d="m 113.38,775.13 c 41.925,-9.6382 87.366,-35.439 124.7,0 1.0045,0.95356 2.5,1.115 2.5,2.5 0,1.385 -1.481,3.438 -2.5,2.5 -39.262,-36.142 -83.085,-9.807 -124.7,0 -1.3481,0.31771 -2.5,-1.115 -2.5,-2.5 0,-1.385 1.1502,-2.1897 2.5,-2.5 z" />
      <path
         inkscape:connector-curvature="0"
         id="path28"
         d="m 189.91,230.71 c -25.109,0.76257 -51.446,12.3 -76.527,18.066 -1.3498,0.31031 -2.5,1.115 -2.5,2.5 0,1.385 1.1519,2.8177 2.5,2.5 25.2,-5.9392 51.209,-17.919 76.527,-18.434 v -4.6328 z"
         transform="translate(0,540.36)" />
      <path
         inkscape:connector-curvature="0"
         id="path30"
         d="m 113.38,801.13 c 41.925,-9.6382 87.366,-35.439 124.7,0 1.0045,0.95356 2.5,1.115 2.5,2.5 0,1.385 -1.481,3.438 -2.5,2.5 -39.262,-36.142 -83.085,-9.807 -124.7,0 -1.3481,0.31771 -2.5,-1.115 -2.5,-2.5 0,-1.385 1.1502,-2.1897 2.5,-2.5 z" />
      <path
         inkscape:connector-curvature="0"
         id="path32"
         d="m 113.38,813.13 c 41.925,-9.6382 87.366,-35.439 124.7,0 1.0045,0.95356 2.5,1.115 2.5,2.5 0,1.385 -1.481,3.438 -2.5,2.5 -39.262,-36.142 -83.085,-9.807 -124.7,0 -1.3481,0.31771 -2.5,-1.115 -2.5,-2.5 0,-1.385 1.1502,-2.1897 2.5,-2.5 z" />
      <path
         inkscape:connector-curvature="0"
         id="path34"
         d="m 113.38,825.13 c 41.925,-9.6382 87.366,-35.439 124.7,0 1.0045,0.95356 2.5,1.115 2.5,2.5 0,1.385 -1.481,3.438 -2.5,2.5 -39.262,-36.142 -83.085,-9.807 -124.7,0 -1.3481,0.31771 -2.5,-1.115 -2.5,-2.5 0,-1.385 1.1502,-2.1897 2.5,-2.5 z" />
      <path
         inkscape:connector-curvature="0"
         id="path36"
         d="m 113.38,839.13 c 41.925,-9.6382 87.366,-35.439 124.7,0 1.0045,0.95356 2.5,1.115 2.5,2.5 0,1.385 -1.481,3.438 -2.5,2.5 -39.262,-36.142 -83.085,-9.807 -124.7,0 -1.3481,0.31771 -2.5,-1.115 -2.5,-2.5 0,-1.385 1.1502,-2.1897 2.5,-2.5 z" />
      <path
         inkscape:connector-curvature="0"
         id="path38"
         d="m 147.71,301.02 c -11.546,3.4216 -23.063,7.1645 -34.326,9.7539 -1.3498,0.31031 -2.5,1.115 -2.5,2.5 0,1.385 1.1519,2.8177 2.5,2.5 11.324,-2.6688 22.811,-6.5456 34.326,-10.07 v -4.6836 z"
         transform="translate(0,540.36)" />
      <path
         inkscape:connector-curvature="0"
         id="path40"
         d="m 113.38,863.13 c 41.925,-9.6382 87.366,-35.439 124.7,0 1.0045,0.95356 2.5,1.115 2.5,2.5 0,1.385 -1.481,3.438 -2.5,2.5 -39.262,-36.142 -83.085,-9.807 -124.7,0 -1.3481,0.31771 -2.5,-1.115 -2.5,-2.5 0,-1.385 1.1502,-2.1897 2.5,-2.5 z" />
      <path
         inkscape:connector-curvature="0"
         id="path42"
         d="m 113.38,875.13 c 41.925,-9.6382 87.366,-35.439 124.7,0 1.0045,0.95356 2.5,1.115 2.5,2.5 0,1.385 -1.481,3.438 -2.5,2.5 -39.262,-36.142 -83.085,-9.807 -124.7,0 -1.3481,0.31771 -2.5,-1.115 -2.5,-2.5 0,-1.385 1.1502,-2.1897 2.5,-2.5 z" />
    </g>
    <g
       transform="matrix(3.4544,0,0,3.4544,135.76,-1749.16)"
       style="fill:#55ddff;fill-rule:evenodd"
       id="g78">
      <path
         inkscape:connector-curvature="0"
         id="path46"
         d="m 418.08,689.13 c -41.925,-9.6382 -87.366,-35.439 -124.7,0 -1.0045,0.95356 -2.5,1.115 -2.5,2.5 0,1.385 1.481,3.438 2.5,2.5 39.262,-36.142 83.085,-9.807 124.7,0 1.3481,0.31771 2.5,-1.115 2.5,-2.5 0,-1.385 -1.1502,-2.1897 -2.5,-2.5 z" />
      <path
         inkscape:connector-curvature="0"
         id="path48"
         d="m 418.08,701.13 c -41.925,-9.6382 -87.366,-35.439 -124.7,0 -1.0045,0.95356 -2.5,1.115 -2.5,2.5 0,1.385 1.481,3.438 2.5,2.5 39.262,-36.142 83.085,-9.807 124.7,0 1.3481,0.31771 2.5,-1.115 2.5,-2.5 0,-1.385 -1.1502,-2.1897 -2.5,-2.5 z" />
      <path
         inkscape:connector-curvature="0"
         id="path50"
         d="m 418.08,713.13 c -41.925,-9.6382 -87.366,-35.439 -124.7,0 -1.0045,0.95356 -2.5,1.115 -2.5,2.5 0,1.385 1.481,3.438 2.5,2.5 39.262,-36.142 83.085,-9.807 124.7,0 1.3481,0.31771 2.5,-1.115 2.5,-2.5 0,-1.385 -1.1502,-2.1897 -2.5,-2.5 z" />
      <path
         inkscape:connector-curvature="0"
         id="path52"
         d="m 418.08,725.13 c -41.925,-9.6382 -87.366,-35.439 -124.7,0 -1.0045,0.95356 -2.5,1.115 -2.5,2.5 0,1.385 1.481,3.438 2.5,2.5 39.262,-36.142 83.085,-9.807 124.7,0 1.3481,0.31771 2.5,-1.115 2.5,-2.5 0,-1.385 -1.1502,-2.1897 -2.5,-2.5 z" />
      <path
         inkscape:connector-curvature="0"
         id="path54"
         d="m 338.19,180.66 c -15.667,0.14771 -30.806,4.8258 -44.805,18.115 -1.0045,0.95356 -2.5,1.115 -2.5,2.5 0,1.385 1.481,3.438 2.5,2.5 15.1,-13.9 30.875,-18.539 46.939,-18.451 v -4.6328 c -0.7117,-0.0115 -1.4252,-0.0379 -2.1348,-0.0312 z"
         transform="translate(0,540.36)" />
      <path
         inkscape:connector-curvature="0"
         id="path56"
         d="m 418.08,751.13 c -41.925,-9.6382 -87.366,-35.439 -124.7,0 -1.0045,0.95356 -2.5,1.115 -2.5,2.5 0,1.385 1.481,3.438 2.5,2.5 39.262,-36.142 83.085,-9.807 124.7,0 1.3481,0.31771 2.5,-1.115 2.5,-2.5 0,-1.385 -1.1502,-2.1897 -2.5,-2.5 z" />
      <path
         inkscape:connector-curvature="0"
         id="path58"
         d="m 418.08,763.13 c -41.925,-9.6382 -87.366,-35.439 -124.7,0 -1.0045,0.95356 -2.5,1.115 -2.5,2.5 0,1.385 1.481,3.438 2.5,2.5 39.262,-36.142 83.085,-9.807 124.7,0 1.3481,0.31771 2.5,-1.115 2.5,-2.5 0,-1.385 -1.1502,-2.1897 -2.5,-2.5 z" />
      <path
         inkscape:connector-curvature="0"
         id="path60"
         d="m 418.08,775.13 c -41.925,-9.6382 -87.366,-35.439 -124.7,0 -1.0045,0.95356 -2.5,1.115 -2.5,2.5 0,1.385 1.481,3.438 2.5,2.5 39.262,-36.142 83.085,-9.807 124.7,0 1.3481,0.31771 2.5,-1.115 2.5,-2.5 0,-1.385 -1.1502,-2.1897 -2.5,-2.5 z" />
      <path
         inkscape:connector-curvature="0"
         id="path62"
         d="m 418.08,789.13 c -41.925,-9.6382 -87.366,-35.439 -124.7,0 -1.0045,0.95356 -2.5,1.115 -2.5,2.5 0,1.385 1.481,3.438 2.5,2.5 39.262,-36.142 83.085,-9.807 124.7,0 1.3481,0.31771 2.5,-1.115 2.5,-2.5 0,-1.385 -1.1502,-2.1897 -2.5,-2.5 z" />
      <path
         inkscape:connector-curvature="0"
         id="path64"
         d="m 418.08,801.13 c -41.925,-9.6382 -87.366,-35.439 -124.7,0 -1.0045,0.95356 -2.5,1.115 -2.5,2.5 0,1.385 1.481,3.438 2.5,2.5 39.262,-36.142 83.085,-9.807 124.7,0 1.3481,0.31771 2.5,-1.115 2.5,-2.5 0,-1.385 -1.1502,-2.1897 -2.5,-2.5 z" />
      <path
         inkscape:connector-curvature="0"
         id="path66"
         d="m 338.19,254.66 c -15.667,0.14771 -30.806,4.8258 -44.805,18.115 -1.0045,0.95356 -2.5,1.115 -2.5,2.5 0,1.385 1.481,3.438 2.5,2.5 16.454,-15.147 33.71,-19.299 51.268,-18.314 v -4.5976 c -2.1623,-0.13901 -4.3188,-0.22335 -6.4629,-0.20313 z"
         transform="translate(0,540.36)" />
      <path
         inkscape:connector-curvature="0"
         id="path68"
         d="m 418.08,825.13 c -41.925,-9.6382 -87.366,-35.439 -124.7,0 -1.0045,0.95356 -2.5,1.115 -2.5,2.5 0,1.385 1.481,3.438 2.5,2.5 39.262,-36.142 83.085,-9.807 124.7,0 1.3481,0.31771 2.5,-1.115 2.5,-2.5 0,-1.385 -1.1502,-2.1897 -2.5,-2.5 z" />
      <path
         inkscape:connector-curvature="0"
         id="path70"
         d="m 418.08,839.13 c -41.925,-9.6382 -87.366,-35.439 -124.7,0 -1.0045,0.95356 -2.5,1.115 -2.5,2.5 0,1.385 1.481,3.438 2.5,2.5 39.262,-36.142 83.085,-9.807 124.7,0 1.3481,0.31771 2.5,-1.115 2.5,-2.5 0,-1.385 -1.1502,-2.1897 -2.5,-2.5 z" />
      <path
         inkscape:connector-curvature="0"
         id="path72"
         d="m 418.08,851.13 c -41.925,-9.6382 -87.366,-35.439 -124.7,0 -1.0045,0.95356 -2.5,1.115 -2.5,2.5 0,1.385 1.481,3.438 2.5,2.5 39.262,-36.142 83.085,-9.807 124.7,0 1.3481,0.31771 2.5,-1.115 2.5,-2.5 0,-1.385 -1.1502,-2.1897 -2.5,-2.5 z" />
      <path
         inkscape:connector-curvature="0"
         id="path74"
         d="m 418.08,863.13 c -41.925,-9.6382 -87.366,-35.439 -124.7,0 -1.0045,0.95356 -2.5,1.115 -2.5,2.5 0,1.385 1.481,3.438 2.5,2.5 39.262,-36.142 83.085,-9.807 124.7,0 1.3481,0.31771 2.5,-1.115 2.5,-2.5 0,-1.385 -1.1502,-2.1897 -2.5,-2.5 z" />
      <path
         inkscape:connector-curvature="0"
         id="path76"
         d="m 418.08,875.13 c -41.925,-9.6382 -87.366,-35.439 -124.7,0 -1.0045,0.95356 -2.5,1.115 -2.5,2.5 0,1.385 1.481,3.438 2.5,2.5 39.262,-36.142 83.085,-9.807 124.7,0 1.3481,0.31771 2.5,-1.115 2.5,-2.5 0,-1.385 -1.1502,-2.1897 -2.5,-2.5 z" />
    </g>
  </g>
</svg>
