<?xml version="1.0" encoding="UTF-8" standalone="no"?>
<svg
   xmlns:dc="http://purl.org/dc/elements/1.1/"
   xmlns:cc="http://creativecommons.org/ns#"
   xmlns:rdf="http://www.w3.org/1999/02/22-rdf-syntax-ns#"
   xmlns:svg="http://www.w3.org/2000/svg"
   xmlns="http://www.w3.org/2000/svg"
   xmlns:sodipodi="http://sodipodi.sourceforge.net/DTD/sodipodi-0.dtd"
   xmlns:inkscape="http://www.inkscape.org/namespaces/inkscape"
   version="1.1"
   viewBox="0 0 189.59639 411.23968"
   xml:space="preserve"
   id="svg511"
   sodipodi:docname="book.svg"
   width="189.59639"
   height="411.23969"
   inkscape:version="0.92.4 (f8dce91, 2019-08-02)"><metadata
   id="metadata515"><rdf:RDF><cc:Work
       rdf:about=""><dc:format>image/svg+xml</dc:format><dc:type
         rdf:resource="http://purl.org/dc/dcmitype/StillImage" /><dc:title></dc:title></cc:Work></rdf:RDF></metadata><sodipodi:namedview
   pagecolor="#ffffff"
   bordercolor="#666666"
   borderopacity="1"
   objecttolerance="10"
   gridtolerance="10"
   guidetolerance="10"
   inkscape:pageopacity="0"
   inkscape:pageshadow="2"
   inkscape:window-width="3840"
   inkscape:window-height="2096"
   id="namedview513"
   showgrid="false"
   fit-margin-top="0"
   fit-margin-left="0"
   fit-margin-right="0"
   fit-margin-bottom="0"
   inkscape:zoom="0.44003579"
   inkscape:cx="-157.8229"
   inkscape:cy="194.00219"
   inkscape:window-x="0"
   inkscape:window-y="27"
   inkscape:window-maximized="1"
   inkscape:current-layer="svg511" />
  <defs
   id="defs65">
    <clipPath
   id="ao">
      <path
   d="m 86.504,96.552 c -0.001,-0.004 -0.005,-0.009 -0.011,-0.018 -0.007,-0.009 -0.015,-0.02 -0.026,-0.032 -0.011,-0.013 -0.025,-0.026 -0.041,-0.041 -0.013,-0.011 -0.027,-0.023 -0.044,-0.034 l 58.815,36.897 c 0.024,0.015 0.046,0.032 0.065,0.046 0.019,0.015 0.035,0.03 0.048,0.043 0.014,0.013 0.025,0.025 0.033,0.033 0.008,0.008 0.012,0.015 0.014,0.017 L 86.511,96.555 Z M 86.37,96.42 c 0.004,0.002 0.008,0.005 0.012,0.007 -0.003,-0.002 -0.008,-0.005 -0.012,-0.007"
   id="path2"
   inkscape:connector-curvature="0" />
    </clipPath>
    <clipPath
   id="ap">
      <path
   d="m 81.266,120.54 c -0.202,-0.107 -0.4,-0.296 -0.564,-0.621 -0.164,-0.325 -0.292,-0.782 -0.358,-1.424 -0.066,-0.639 -0.069,-1.461 0.021,-2.515 0.088,-1.047 0.266,-2.32 0.563,-3.869 0.398,-2.074 0.837,-3.748 1.284,-5.107 0.446,-1.349 0.903,-2.393 1.339,-3.205 0.436,-0.809 0.852,-1.391 1.214,-1.814 0.363,-0.424 0.674,-0.688 0.896,-0.863 0.222,-0.175 0.363,-0.346 0.462,-0.503 0.098,-0.157 0.155,-0.303 0.208,-0.432 0.054,-0.13 0.103,-0.243 0.19,-0.336 0.087,-0.093 0.21,-0.165 0.41,-0.213 0.082,-0.021 0.148,-0.036 0.204,-0.048 0.055,-0.013 0.099,-0.02 0.134,-0.026 0.033,-0.005 0.058,-0.007 0.077,-0.006 0.018,0 0.03,0.003 0.039,0.009 19.798,12.236 39.595,24.473 59.394,36.709 -0.009,-0.005 -0.021,-0.009 -0.038,-0.012 -0.018,-0.003 -0.043,-0.004 -0.077,-0.005 -0.034,0 -0.077,0.001 -0.131,0.003 -0.055,0.002 -0.121,0.007 -0.201,0.011 -0.195,0.014 -0.31,0.06 -0.383,0.129 -0.072,0.069 -0.104,0.162 -0.136,0.27 -0.032,0.106 -0.064,0.228 -0.138,0.353 -0.073,0.124 -0.188,0.254 -0.385,0.376 -0.197,0.123 -0.47,0.311 -0.768,0.634 -0.298,0.322 -0.623,0.775 -0.928,1.43 -0.305,0.654 -0.59,1.511 -0.81,2.639 -0.221,1.134 -0.377,2.545 -0.419,4.31 -0.032,1.315 0.01,2.403 0.103,3.304 0.094,0.906 0.24,1.62 0.419,2.185 0.179,0.566 0.39,0.979 0.613,1.28 0.222,0.302 0.456,0.492 0.679,0.61 -20.95,-11.1 -41.92,-22.18 -62.894,-33.27 m 65.513,15.736 c 0.001,0.001 0.002,0.002 0.004,0.003 -0.001,-0.001 -0.003,-0.002 -0.004,-0.003"
   id="path5"
   inkscape:connector-curvature="0" />
    </clipPath>
    <clipPath
   id="v">
      <path
   d="m 82.587,121.31 c -0.035,-0.019 -0.054,-0.06 -0.065,-0.114 -0.012,-0.052 -0.016,-0.118 -0.023,-0.184 -0.008,-0.067 -0.019,-0.135 -0.042,-0.195 -0.024,-0.06 -0.061,-0.11 -0.121,-0.142 20.984,11.123 41.967,22.248 62.951,33.371 0.066,0.035 0.112,0.084 0.147,0.139 0.034,0.055 0.056,0.115 0.075,0.172 0.019,0.059 0.035,0.116 0.055,0.163 0.021,0.047 0.046,0.086 0.086,0.106 -21.04,-11.11 -42.06,-22.22 -63.083,-33.32"
   id="path8"
   inkscape:connector-curvature="0" />
    </clipPath>
    <clipPath
   id="w">
      <path
   d="m 143.84,159.06 c -0.026,-0.008 -0.052,-0.017 -0.076,-0.026 -0.024,-0.007 -0.048,-0.016 -0.07,-0.025 -0.023,-0.009 -0.043,-0.019 -0.064,-0.027 -0.021,-0.01 -0.041,-0.019 -0.059,-0.029 -21.32,-10.71 -42.64,-21.44 -63.954,-32.16 0.012,0.006 0.026,0.012 0.039,0.017 0.019,0.009 0.039,0.017 0.061,0.025 0.02,0.007 0.042,0.014 0.065,0.02 0.023,0.008 0.046,0.014 0.071,0.019 0.145,0.036 0.293,-0.004 0.434,-0.088 0.142,-0.083 0.277,-0.207 0.395,-0.336 0.117,-0.131 0.219,-0.267 0.292,-0.376 0.074,-0.107 0.12,-0.185 0.128,-0.2 l 63.83,32.49 c -0.007,0.011 -0.039,0.072 -0.095,0.156 -0.056,0.083 -0.134,0.188 -0.231,0.285 -0.097,0.098 -0.212,0.188 -0.34,0.242 -0.077,0.031 -0.16,0.05 -0.246,0.05 -0.058,0 -0.117,-0.009 -0.178,-0.028 m -64.24,-32.283 c 0.006,0.003 0.01,0.005 0.015,0.007 -0.005,-0.002 -0.01,-0.004 -0.015,-0.007"
   id="path11"
   inkscape:connector-curvature="0" />
    </clipPath>
    <clipPath
   id="x">
      <path
   d="m 166.4,55.239 c -0.007,-0.141 -0.019,-0.277 -0.039,-0.407 -0.019,-0.13 -0.045,-0.251 -0.078,-0.366 -0.033,-0.114 -0.074,-0.22 -0.122,-0.314 -0.048,-0.094 -0.104,-0.177 -0.168,-0.248 16.539,18.348 33.078,36.695 49.617,55.045 0.065,0.072 0.124,0.154 0.177,0.244 0.054,0.09 0.102,0.187 0.144,0.29 0.043,0.105 0.08,0.215 0.111,0.33 0.031,0.115 0.058,0.235 0.079,0.358 z"
   id="path14"
   inkscape:connector-curvature="0" />
    </clipPath>
    <clipPath
   id="y">
      <path
   d="m 147.14,136.49 c -0.031,-0.009 -0.059,-0.017 -0.085,-0.026 -0.025,-0.009 -0.047,-0.017 -0.067,-0.025 -0.02,-0.008 -0.038,-0.017 -0.053,-0.024 -0.016,-0.008 -0.029,-0.015 -0.041,-0.022 -19.81,-12.24 -39.62,-24.48 -59.427,-36.715 0.011,0.006 0.022,0.013 0.037,0.019 0.013,0.006 0.029,0.011 0.048,0.019 0.019,0.005 0.04,0.011 0.064,0.017 0.024,0.005 0.051,0.011 0.08,0.016 0.261,0.044 4.291,-1.959 10.397,-5.103 6.352,-3.271 15.117,-7.861 24.352,-12.739 9.759,-5.154 20.064,-10.64 28.246,-15.043 8.553,-4.603 14.546,-7.889 14.79,-8.163 0.137,-0.156 0.268,-0.373 0.384,-0.631 0.116,-0.258 0.219,-0.556 0.302,-0.874 0.084,-0.318 0.148,-0.654 0.188,-0.988 0.04,-0.334 0.056,-0.666 0.042,-0.976 l 49.721,54.932 c 0.046,0.269 0.069,0.552 0.069,0.832 10e-4,0.281 -0.018,0.559 -0.058,0.818 -0.041,0.259 -0.099,0.498 -0.175,0.701 -0.075,0.201 -0.167,0.367 -0.273,0.477 -0.187,0.194 -5.199,2.025 -12.43,4.585 -6.996,2.477 -15.927,5.585 -24.506,8.533 -8.229,2.827 -16.144,5.51 -21.949,7.426 -5.453,1.799 -9.15,2.955 -9.626,2.955 -0.015,0 -0.027,-0.002 -0.036,-0.004"
   id="path17"
   inkscape:connector-curvature="0" />
    </clipPath>
    <clipPath
   id="z">
      <path
   d="m 145.78,158.73 c -0.07,-0.003 -0.137,-0.011 -0.2,-0.024 -0.061,-0.012 -0.121,-0.03 -0.175,-0.048 -0.053,-0.019 -0.103,-0.042 -0.149,-0.065 -21.292,-10.83 -42.582,-21.66 -63.873,-32.489 0.042,0.02 0.087,0.039 0.139,0.056 0.051,0.014 0.107,0.026 0.168,0.032 0.06,0.005 0.126,0.005 0.197,-0.002 0.071,-0.006 0.147,-0.021 0.229,-0.046 0.163,-0.048 0.306,-0.105 0.449,-0.179 0.144,-0.076 0.286,-0.168 0.447,-0.291 0.161,-0.121 0.34,-0.271 0.556,-0.46 0.216,-0.189 0.47,-0.417 0.78,-0.693 0.308,-0.276 4.516,-2.211 10.88,-5.069 6.632,-2.977 15.801,-7.045 25.503,-11.35 10.291,-4.567 21.217,-9.414 29.951,-13.334 9.168,-4.112 15.651,-7.077 16.008,-7.413 0.204,-0.19 0.373,-0.409 0.512,-0.649 0.138,-0.24 0.246,-0.5 0.327,-0.772 0.081,-0.272 0.135,-0.555 0.165,-0.842 0.031,-0.287 0.038,-0.576 0.024,-0.862 -0.012,-0.289 -0.047,-0.572 -0.096,-0.841 -0.049,-0.27 -0.117,-0.525 -0.196,-0.758 -0.079,-0.232 -0.17,-0.444 -0.271,-0.624 -0.101,-0.181 -0.211,-0.33 -0.326,-0.442 17.502,16.967 35.004,33.934 52.505,50.901 0.113,0.109 0.224,0.248 0.33,0.411 0.107,0.163 0.209,0.35 0.302,0.554 0.094,0.204 0.178,0.423 0.249,0.653 0.072,0.229 0.131,0.467 0.172,0.706 0.042,0.236 0.066,0.474 0.07,0.705 0.003,0.232 -0.014,0.457 -0.056,0.669 -0.043,0.212 -0.108,0.411 -0.205,0.589 -0.094,0.177 -0.218,0.334 -0.375,0.462 -0.275,0.225 -5.62,1.778 -13.274,3.929 -7.388,2.076 -16.77,4.667 -25.747,7.145 -8.59,2.371 -16.826,4.645 -22.848,6.34 -5.836,1.642 -9.718,2.775 -9.982,2.973 -0.264,0.199 -0.48,0.362 -0.666,0.498 -0.184,0.135 -0.339,0.241 -0.48,0.325 -0.141,0.085 -0.269,0.147 -0.401,0.194 -0.131,0.046 -0.266,0.077 -0.422,0.099 -0.063,0.009 -0.123,0.012 -0.182,0.012 h -0.039"
   id="path20"
   inkscape:connector-curvature="0" />
    </clipPath>
    <clipPath
   id="aa">
      <path
   d="M 0,420.94 H 1190.6 V 0 H 0 Z"
   id="path23"
   inkscape:connector-curvature="0" />
    </clipPath>
    <clipPath
   id="ab">
      <path
   d="m 100.56,119.8 c -0.084,-0.421 -0.152,-0.875 -0.202,-1.366 -0.05,-0.49 -0.082,-1.016 -0.093,-1.581 -0.012,-0.562 -0.002,-1.163 0.031,-1.805 0.032,-0.641 0.089,-1.321 0.17,-2.045 0.279,-2.464 0.737,-4.36 1.29,-5.826 0.55,-1.454 1.196,-2.49 1.855,-3.23 0.656,-0.737 1.328,-1.184 1.932,-1.463 0.604,-0.277 1.143,-0.387 1.531,-0.445 0.387,-0.06 0.619,-0.171 0.772,-0.302 0.152,-0.131 0.226,-0.278 0.298,-0.407 0.071,-0.128 0.141,-0.239 0.286,-0.293 0.144,-0.054 0.363,-0.053 0.733,0.04 0.374,0.092 0.584,0.149 0.706,0.189 0.122,0.043 0.157,0.069 0.182,0.103 0.023,0.034 0.036,0.075 0.113,0.143 0.077,0.068 0.219,0.164 0.501,0.31 0.506,0.258 7.581,0.738 17.869,1.299 10.219,0.559 23.555,1.194 36.736,1.777 13.057,0.575 25.958,1.096 35.607,1.438 9.576,0.34 15.988,0.503 16.227,0.367 0.031,-0.018 0.062,-0.039 0.091,-0.064 0.029,-0.024 0.057,-0.052 0.085,-0.083 0.027,-0.031 0.053,-0.065 0.079,-0.102 0.026,-0.037 0.05,-0.077 0.073,-0.12 -8.551,15.673 -17.101,31.344 -25.652,47.016 -0.018,0.034 -0.038,0.067 -0.058,0.096 -0.02,0.029 -0.04,0.058 -0.061,0.082 -0.021,0.026 -0.042,0.048 -0.065,0.068 -0.021,0.021 -0.045,0.037 -0.067,0.051 -0.178,0.112 -4.755,0.085 -11.574,-0.031 -6.856,-0.117 -15.997,-0.323 -25.221,-0.569 -9.286,-0.248 -18.655,-0.535 -25.816,-0.808 -7.194,-0.278 -12.134,-0.539 -12.49,-0.734 -0.199,-0.11 -0.299,-0.182 -0.353,-0.235 -0.055,-0.052 -0.064,-0.083 -0.081,-0.109 -0.016,-0.027 -0.041,-0.046 -0.127,-0.078 -0.086,-0.031 -0.232,-0.071 -0.494,-0.137 -0.259,-0.067 -0.412,-0.065 -0.512,-0.02 -0.1,0.045 -0.147,0.133 -0.196,0.235 -0.049,0.102 -0.098,0.219 -0.203,0.323 -0.105,0.105 -0.265,0.196 -0.534,0.247 -0.27,0.053 -0.644,0.148 -1.06,0.374 -0.417,0.227 -0.879,0.587 -1.325,1.172 -0.448,0.588 -0.882,1.402 -1.243,2.541 -0.363,1.144 -0.652,2.616 -0.808,4.52 -0.046,0.558 -0.074,1.081 -0.087,1.572 -0.014,0.493 -0.012,0.953 0.004,1.384 0.016,0.431 0.046,0.833 0.087,1.206 0.043,0.374 0.096,0.718 0.16,1.038 -3.033,-15.247 -6.064,-30.491 -9.096,-45.738"
   id="path26"
   inkscape:connector-curvature="0" />
    </clipPath>
    <clipPath
   id="ac">
      <path
   d="m 181.6,175.86 c -7.082,-0.167 -16.496,-0.432 -25.978,-0.699 -9.544,-0.269 -19.159,-0.539 -26.5,-0.711 -7.379,-0.175 -12.442,-0.25 -12.798,-0.125 -0.355,0.123 -0.647,0.225 -0.898,0.308 -0.25,0.083 -0.459,0.144 -0.649,0.187 -0.191,0.044 -0.362,0.068 -0.538,0.073 -0.176,0.006 -0.356,-0.006 -0.562,-0.037 -0.218,-0.029 -0.413,-0.09 -0.584,-0.162 -0.171,-0.073 -0.316,-0.16 -0.436,-0.244 -0.12,-0.083 -0.212,-0.164 -0.277,-0.226 -0.065,-0.062 -0.102,-0.105 -0.108,-0.113 l -8.11,-42.903 c 0.01,0.011 0.062,0.069 0.156,0.152 0.093,0.085 0.228,0.196 0.401,0.31 0.173,0.114 0.385,0.233 0.634,0.335 0.248,0.102 0.533,0.186 0.853,0.231 0.302,0.045 0.566,0.067 0.824,0.063 0.258,-0.003 0.51,-0.031 0.79,-0.083 0.28,-0.053 0.588,-0.131 0.957,-0.236 0.369,-0.103 0.798,-0.233 1.322,-0.389 0.524,-0.157 7.93,0.068 18.705,0.48 10.695,0.409 24.664,1.001 38.491,1.587 13.697,0.581 27.255,1.156 37.427,1.546 10.098,0.387 16.902,0.591 17.248,0.438 0.051,-0.024 0.099,-0.049 0.144,-0.078 0.045,-0.029 0.088,-0.06 0.128,-0.093 0.04,-0.035 0.078,-0.071 0.113,-0.109 0.028,-0.031 0.055,-0.063 0.079,-0.097 -9.473,13.467 -18.946,26.934 -28.421,40.4 -0.023,0.033 -0.048,0.064 -0.074,0.095 -0.027,0.029 -0.055,0.058 -0.085,0.084 -0.03,0.025 -0.061,0.049 -0.094,0.072 -0.034,0.022 -0.068,0.042 -0.104,0.061 -0.086,0.041 -0.71,0.06 -1.781,0.06 -2.029,0 -5.662,-0.068 -10.275,-0.177 m 40.853,-40.622 c -0.006,0.01 -0.012,0.019 -0.019,0.027 0.007,-0.009 0.013,-0.018 0.019,-0.027"
   id="path29"
   inkscape:connector-curvature="0" />
    </clipPath>
    <clipPath
   id="ad">
      <path
   d="m 110.77,174.51 c -0.301,-0.154 -0.504,-0.299 -0.643,-0.437 -0.14,-0.137 -0.217,-0.268 -0.269,-0.39 -0.051,-0.124 -0.076,-0.241 -0.113,-0.351 -0.038,-0.11 -0.085,-0.214 -0.182,-0.314 -0.07,-0.072 -0.276,-0.29 -0.562,-0.644 -0.286,-0.354 -0.651,-0.844 -1.04,-1.462 -0.388,-0.617 -0.798,-1.36 -1.177,-2.222 -0.377,-0.861 -0.722,-1.836 -0.979,-2.922 -3.621,-15.257 -7.241,-30.512 -10.861,-45.767 0.339,1.432 0.811,2.728 1.336,3.873 0.526,1.149 1.104,2.145 1.654,2.972 0.551,0.83 1.071,1.49 1.48,1.967 0.409,0.478 0.705,0.772 0.805,0.871 0.139,0.135 0.207,0.275 0.259,0.423 0.051,0.148 0.085,0.304 0.156,0.469 0.073,0.166 0.182,0.341 0.383,0.529 0.201,0.186 0.495,0.385 0.934,0.598 0.293,0.141 0.574,0.184 0.833,0.168 0.258,-0.016 0.492,-0.09 0.691,-0.185 0.2,-0.094 0.363,-0.207 0.48,-0.3 0.118,-0.092 0.189,-0.165 0.202,-0.178 l 8.11,42.903 c -0.009,0.01 -0.057,0.066 -0.135,0.137 -0.079,0.071 -0.189,0.158 -0.324,0.23 -0.134,0.073 -0.294,0.133 -0.469,0.148 -0.028,0.002 -0.057,0.004 -0.086,0.004 -0.151,0 -0.314,-0.034 -0.483,-0.12"
   id="path32"
   inkscape:connector-curvature="0" />
    </clipPath>
    <clipPath
   id="ae">
      <path
   d="M 0,420.94 H 1190.6 V 0 H 0 Z"
   id="path35"
   inkscape:connector-curvature="0" />
    </clipPath>
    <clipPath
   id="af">
      <path
   d="m 159.48,184.34 c -5.817,-1.171 -13.769,-2.823 -22.03,-4.579 -8.57,-1.822 -17.484,-3.756 -24.486,-5.335 -7.208,-1.626 -12.259,-2.846 -12.617,-3.126 -0.204,-0.159 -0.306,-0.258 -0.361,-0.326 -0.056,-0.067 -0.065,-0.103 -0.081,-0.136 -0.017,-0.031 -0.041,-0.058 -0.128,-0.11 -0.087,-0.049 -0.237,-0.121 -0.504,-0.244 -0.101,-0.046 -0.187,-0.08 -0.261,-0.101 -0.073,-0.022 -0.134,-0.032 -0.185,-0.032 -0.052,-0.001 -0.093,0.009 -0.129,0.026 -0.035,0.017 -0.064,0.04 -0.089,0.07 13.117,-15.159 26.232,-30.317 39.349,-45.476 0.03,-0.034 0.064,-0.06 0.107,-0.075 0.043,-0.016 0.095,-0.022 0.161,-0.014 0.066,0.009 0.144,0.03 0.24,0.069 0.096,0.039 0.208,0.095 0.341,0.171 0.352,0.2 0.549,0.317 0.665,0.394 0.115,0.077 0.149,0.117 0.173,0.161 0.025,0.043 0.039,0.092 0.117,0.188 0.076,0.097 0.215,0.241 0.49,0.477 0.483,0.417 6.993,2.748 16.183,5.894 8.824,3.022 19.909,6.724 30.414,10.185 9.991,3.291 19.48,6.372 26.342,8.553 6.62,2.106 10.951,3.425 11.107,3.341 l -55.268,31.787 c -0.007,0.004 -0.025,0.007 -0.052,0.007 -0.493,-0.001 -4.131,-0.688 -9.498,-1.769"
   id="path38"
   inkscape:connector-curvature="0" />
    </clipPath>
    <clipPath
   id="ag">
      <path
   d="m 95.581,166.62 c 0.023,-0.039 0.044,-0.08 0.067,-0.121 0.021,-0.042 0.044,-0.084 0.07,-0.126 0.026,-0.043 0.055,-0.086 0.089,-0.128 12.721,-15.71 25.442,-31.417 38.164,-47.126 -0.034,0.043 -0.063,0.088 -0.088,0.133 -0.029,0.051 -0.055,0.101 -0.079,0.152 -0.024,0.049 -0.048,0.099 -0.074,0.145 -0.026,0.047 -0.054,0.092 -0.088,0.135 -12.714,15.682 -25.426,31.365 -38.138,47.048 0.028,-0.035 0.053,-0.073 0.077,-0.112 m 38.405,-47.52 c -0.005,0.006 -0.011,0.013 -0.015,0.019 0.005,-0.006 0.01,-0.013 0.015,-0.019"
   id="path41"
   inkscape:connector-curvature="0" />
    </clipPath>
    <clipPath
   id="ah">
      <path
   d="m 133.71,126.93 c 0.291,-0.342 0.59,-0.598 0.888,-0.79 0.296,-0.189 0.59,-0.314 0.871,-0.394 0.28,-0.08 0.547,-0.115 0.79,-0.127 0.242,-0.011 0.462,0.003 0.645,0.022 0.11,0.011 0.207,0.012 0.291,0.005 0.084,-0.005 0.157,-0.019 0.219,-0.039 0.063,-0.02 0.117,-0.046 0.161,-0.077 0.04,-0.026 0.073,-0.056 0.102,-0.088 -13.103,15.129 -26.203,30.255 -39.306,45.383 -0.028,0.032 -0.059,0.062 -0.097,0.09 -0.037,0.027 -0.081,0.052 -0.131,0.074 -0.05,0.022 -0.109,0.04 -0.176,0.052 -0.067,0.013 -0.143,0.021 -0.23,0.022 -0.143,0.002 -0.315,0.012 -0.507,0.043 -0.192,0.031 -0.405,0.083 -0.63,0.17 -0.226,0.088 -0.464,0.212 -0.709,0.387 -0.244,0.175 -0.493,0.401 -0.741,0.691 12.854,-15.141 25.707,-30.282 38.56,-45.424 m 3.98,-1.503 c -0.004,0.005 -0.009,0.01 -0.013,0.015 0.004,-0.004 0.009,-0.01 0.013,-0.015"
   id="path44"
   inkscape:connector-curvature="0" />
    </clipPath>
    <clipPath
   id="ai">
      <path
   d="m 97.895,191.42 -0.006,0.006 0.006,-0.006 m 0.009,-0.01 c 0.004,-0.006 0.009,-0.011 0.014,-0.019 0.006,-0.006 0.011,-0.013 0.017,-0.02 0.007,-0.007 0.014,-0.015 0.023,-0.025 13.724,-12.983 27.449,-25.966 41.173,-38.95 -0.008,0.008 -0.015,0.015 -0.021,0.023 -0.008,0.01 -0.014,0.018 -0.02,0.027 -0.006,0.007 -0.011,0.015 -0.017,0.021 -0.005,0.008 -0.01,0.015 -0.017,0.02 -13.721,12.978 -27.44,25.957 -41.161,38.933 0.003,-0.003 0.006,-0.006 0.009,-0.01 m 41.232,-39.019 c -0.001,0.001 -0.003,0.004 -0.005,0.005 l 0.005,-0.005"
   id="path47"
   inkscape:connector-curvature="0" />
    </clipPath>
    <clipPath
   id="aj">
      <path
   d="m 159.96,206.35 c -5.965,-1.004 -14.1,-2.417 -22.545,-3.884 -8.764,-1.523 -17.876,-3.105 -25.032,-4.313 -7.376,-1.244 -12.544,-2.067 -12.914,-1.985 -0.372,0.081 -0.676,0.15 -0.938,0.203 -0.261,0.053 -0.479,0.09 -0.677,0.108 -0.198,0.019 -0.376,0.02 -0.558,0 -0.183,-0.019 -0.369,-0.06 -0.583,-0.122 -0.228,-0.066 -0.43,-0.161 -0.607,-0.266 -0.176,-0.105 -0.326,-0.222 -0.449,-0.331 -0.123,-0.11 -0.218,-0.212 -0.283,-0.289 -0.066,-0.077 -0.103,-0.13 -0.11,-0.14 l 40.762,-37.933 c 0.009,0.014 0.063,0.089 0.155,0.202 0.094,0.112 0.227,0.261 0.397,0.425 0.17,0.162 0.377,0.337 0.617,0.5 0.24,0.165 0.514,0.316 0.816,0.432 0.284,0.11 0.531,0.187 0.77,0.236 0.238,0.05 0.469,0.069 0.725,0.068 0.255,-0.001 0.534,-0.025 0.868,-0.063 0.333,-0.04 0.72,-0.095 1.193,-0.16 0.472,-0.066 7.204,1.661 16.716,4.188 9.117,2.423 20.569,5.523 31.421,8.463 10.307,2.791 20.102,5.444 27.196,7.326 6.841,1.815 11.337,2.958 11.56,2.865 l -58.631,25.971 c -0.013,0.005 -0.041,0.008 -0.084,0.008 -0.622,0 -4.347,-0.592 -9.785,-1.509"
   id="path50"
   inkscape:connector-curvature="0" />
    </clipPath>
    <clipPath
   id="ak">
      <path
   d="m 94.211,195.75 c -0.166,-0.02 -0.344,-0.081 -0.526,-0.206 -0.313,-0.215 -0.522,-0.404 -0.664,-0.577 -0.143,-0.172 -0.219,-0.327 -0.27,-0.47 -0.05,-0.144 -0.073,-0.275 -0.109,-0.402 -0.035,-0.127 -0.082,-0.25 -0.181,-0.374 -0.098,-0.125 -0.46,-0.589 -0.931,-1.351 -0.472,-0.762 -1.053,-1.819 -1.591,-3.128 -0.537,-1.305 -1.031,-2.857 -1.327,-4.609 -0.296,-1.741 -0.395,-3.675 -0.15,-5.746 0.122,-1.04 0.319,-2.004 0.57,-2.898 0.249,-0.89 0.552,-1.708 0.889,-2.46 0.335,-0.747 0.703,-1.425 1.084,-2.038 0.381,-0.612 0.775,-1.158 1.163,-1.642 12.491,-15.548 24.981,-31.095 37.472,-46.643 -0.459,0.57 -0.918,1.223 -1.357,1.963 -0.439,0.744 -0.857,1.577 -1.225,2.506 -0.371,0.934 -0.693,1.967 -0.939,3.101 -0.249,1.142 -0.42,2.388 -0.49,3.744 -0.137,2.712 0.164,5.299 0.706,7.663 0.545,2.38 1.333,4.525 2.155,6.347 0.826,1.828 1.685,3.324 2.373,4.411 0.688,1.085 1.205,1.758 1.345,1.937 0.142,0.18 0.214,0.351 0.273,0.526 0.058,0.176 0.102,0.356 0.181,0.557 0.079,0.199 0.194,0.417 0.397,0.668 0.203,0.25 0.493,0.532 0.923,0.86 0.251,0.19 0.489,0.296 0.707,0.343 0.218,0.047 0.417,0.036 0.591,-0.005 0.174,-0.041 0.322,-0.111 0.44,-0.184 0.111,-0.067 0.194,-0.135 0.247,-0.183 -13.576,12.645 -15.4,37.914 -40.742,37.914 -0.043,0.039 -0.114,0.101 -0.209,0.163 -0.095,0.062 -0.214,0.125 -0.349,0.168 -0.102,0.032 -0.214,0.052 -0.334,0.052 -0.04,0 -0.08,-0.002 -0.122,-0.007 m 41.766,-38.3 c -0.003,0.003 -0.007,0.006 -0.01,0.01 l 0.01,-0.01"
   id="path53"
   inkscape:connector-curvature="0" />
    </clipPath>
    <clipPath
   id="al">
      <path
   d="M 0,420.94 H 1190.6 V 0 H 0 Z"
   id="path56"
   inkscape:connector-curvature="0" />
    </clipPath>
    <clipPath
   id="am">
      <path
   d="m 115.79,382.63 h 75.272 V 243.25 H 115.79 Z"
   id="path59"
   inkscape:connector-curvature="0" />
    </clipPath>
    <clipPath
   id="an">
      <path
   d="m 118.5,355.28 h 89.697 v -110 H 118.5 Z"
   id="path62"
   inkscape:connector-curvature="0" />
    </clipPath>
  </defs>
  <g
   transform="matrix(1.25,0,0,-1.25,-96.583978,478.2875)"
   id="g509">
      <g
   clip-path="url(#ao)"
   id="g71">
        <g
   transform="translate(86.504,96.552)"
   id="g69">
          <path
   d="m 0,0 58.854,36.911 c -0.002,-0.002 -0.007,-0.009 -0.015,-0.017 -0.008,-0.008 -0.019,-0.02 -0.032,-0.033 -0.014,-0.013 -0.03,-0.027 -0.049,-0.043 -0.019,-0.014 -0.041,-0.03 -0.065,-0.046 L -0.133,-0.132 c 0.021,0.013 0.039,0.028 0.055,0.041 0.016,0.015 0.03,0.028 0.041,0.041 0.011,0.013 0.019,0.024 0.026,0.032 C -0.005,-0.009 -0.001,-0.003 0,0"
   id="path67"
   inkscape:connector-curvature="0"
   style="fill:#3a7ead" />
        </g>
      </g>
      <g
   clip-path="url(#ap)"
   id="g93">
        <g
   transform="translate(81.265,120.54)"
   id="g75">
          <path
   d="m 0,0 62.914,33.253 c -0.185,-0.099 -0.378,-0.245 -0.565,-0.466 -0.188,-0.22 -0.37,-0.512 -0.535,-0.899 -0.165,-0.387 -0.312,-0.869 -0.43,-1.47 -0.118,-0.598 -0.206,-1.313 -0.255,-2.167 L -0.787,-5.641 c -0.124,0.998 -0.179,1.828 -0.182,2.516 -0.003,0.691 0.048,1.239 0.135,1.672 0.088,0.434 0.212,0.753 0.357,0.985 C -0.332,-0.234 -0.167,-0.089 0,0"
   id="path73"
   inkscape:connector-curvature="0"
   style="fill:#3a7ead" />
        </g>
        <g
   transform="translate(80.478,114.9)"
   id="g79">
          <path
   d="m 0,0 61.916,33.892 c -0.01,-0.174 -0.018,-0.355 -0.024,-0.54 -0.006,-0.187 -0.011,-0.378 -0.014,-0.577 -0.002,-0.197 -0.003,-0.401 -0.002,-0.611 0.002,-0.21 0.005,-0.427 0.01,-0.649 0.013,-0.533 0.036,-1.033 0.068,-1.502 0.032,-0.469 0.073,-0.908 0.122,-1.319 0.048,-0.41 0.104,-0.792 0.166,-1.149 0.062,-0.356 0.131,-0.687 0.205,-0.994 L 2.007,-8.679 C 1.872,-8.31 1.737,-7.912 1.603,-7.487 1.469,-7.061 1.336,-6.605 1.206,-6.119 1.075,-5.631 0.946,-5.111 0.82,-4.559 0.693,-4.003 0.57,-3.414 0.45,-2.788 0.399,-2.525 0.353,-2.271 0.309,-2.024 0.265,-1.778 0.225,-1.538 0.188,-1.307 0.15,-1.074 0.116,-0.85 0.085,-0.632 0.054,-0.414 0.025,-0.204 0,0"
   id="path77"
   inkscape:connector-curvature="0"
   style="fill:#4b9ed7" />
        </g>
        <g
   transform="translate(82.485,106.22)"
   id="g83">
          <path
   d="m 0,0 60.44,35.229 c 0.171,-0.713 0.37,-1.301 0.58,-1.787 0.21,-0.485 0.432,-0.87 0.65,-1.176 0.219,-0.306 0.433,-0.535 0.627,-0.707 0.195,-0.174 0.369,-0.292 0.508,-0.378 0.164,-0.103 0.271,-0.21 0.345,-0.315 0.074,-0.105 0.114,-0.209 0.144,-0.305 0.031,-0.096 0.052,-0.185 0.088,-0.26 0.035,-0.075 0.085,-0.138 0.173,-0.182 L 4.139,-6.457 c -0.097,0.065 -0.16,0.146 -0.21,0.24 C 3.879,-6.124 3.84,-6.018 3.791,-5.9 3.741,-5.784 3.68,-5.657 3.585,-5.522 3.49,-5.388 3.361,-5.246 3.176,-5.099 3.02,-4.977 2.821,-4.81 2.592,-4.576 2.363,-4.343 2.103,-4.042 1.823,-3.649 1.543,-3.258 1.245,-2.774 0.938,-2.176 0.63,-1.576 0.313,-0.859 0,0"
   id="path81"
   inkscape:connector-curvature="0"
   style="fill:#5abdff" />
        </g>
        <g
   transform="translate(86.624,99.766)"
   id="g87">
          <path
   d="m 0,0 59.416,36.576 c 0.015,-0.008 0.032,-0.014 0.05,-0.021 0.018,-0.007 0.038,-0.013 0.059,-0.018 0.021,-0.006 0.044,-0.011 0.068,-0.015 0.024,-0.003 0.05,-0.006 0.078,-0.009 L 0.269,-0.116 C 0.241,-0.109 0.214,-0.101 0.189,-0.092 0.164,-0.083 0.14,-0.074 0.118,-0.064 0.096,-0.055 0.075,-0.045 0.055,-0.034 0.036,-0.023 0.017,-0.012 0,0"
   id="path85"
   inkscape:connector-curvature="0"
   style="fill:#4b9ed7" />
        </g>
        <g
   transform="translate(86.894,99.649)"
   id="g91">
          <path
   d="m 0,0 59.402,36.629 c 0.003,0 0.006,0 0.009,-10e-4 h 0.008 c 0.003,-10e-4 0.007,-10e-4 0.01,-10e-4 0.003,0 0.006,-0.001 0.009,-0.001 0.08,-0.005 0.146,-0.009 0.201,-0.012 0.054,-0.002 0.097,-0.003 0.131,-0.003 0.034,0.001 0.06,0.002 0.078,0.006 0.019,0.003 0.032,0.008 0.042,0.014 L 0.491,-0.081 C 0.482,-0.087 0.47,-0.09 0.452,-0.09 0.434,-0.091 0.409,-0.089 0.375,-0.083 0.34,-0.078 0.297,-0.07 0.242,-0.058 0.186,-0.046 0.119,-0.03 0.037,-0.01 c -0.003,0.001 -0.006,0.001 -0.01,0.002 -0.003,0.001 -0.006,0.002 -0.009,0.003 -0.003,0 -0.006,0.001 -0.009,0.002 L 0,0"
   id="path89"
   inkscape:connector-curvature="0"
   style="fill:#3a7ead" />
        </g>
      </g>
      <g
   clip-path="url(#v)"
   id="g99">
        <g
   transform="translate(82.586,121.31)"
   id="g97">
          <path
   d="M 0,0 63.063,33.316 C 63.024,33.296 62.998,33.258 62.978,33.211 62.957,33.163 62.941,33.106 62.923,33.048 62.904,32.99 62.881,32.93 62.847,32.875 62.813,32.82 62.767,32.771 62.7,32.736 L -0.25,-0.635 c 0.06,0.031 0.097,0.082 0.121,0.143 0.023,0.059 0.034,0.128 0.041,0.194 0.007,0.067 0.012,0.132 0.023,0.185 C -0.054,-0.06 -0.035,-0.019 0,0"
   id="path95"
   inkscape:connector-curvature="0"
   style="fill:#3a7ead" />
        </g>
      </g>
      <g
   clip-path="url(#w)"
   id="g113">
        <g
   transform="translate(79.601,126.77)"
   id="g103">
          <path
   d="m 0,0 63.97,32.176 c 0.019,0.01 0.039,0.018 0.06,0.028 0.02,0.009 0.042,0.019 0.064,0.027 0.023,0.009 0.046,0.018 0.07,0.026 0.024,0.009 0.049,0.017 0.076,0.025 0.016,0.005 0.032,0.01 0.049,0.014 l 0.048,0.009 c 0.016,0.002 0.032,0.004 0.047,0.005 0.016,10e-4 0.032,10e-4 0.047,10e-4 L 0.439,0.094 C 0.424,0.097 0.408,0.099 0.392,0.1 0.376,0.101 0.361,0.102 0.345,0.101 0.329,0.101 0.313,0.1 0.298,0.098 0.282,0.095 0.267,0.092 0.251,0.088 0.226,0.082 0.203,0.076 0.18,0.069 0.157,0.063 0.135,0.056 0.114,0.048 0.093,0.041 0.073,0.033 0.055,0.024 0.035,0.017 0.017,0.009 0,0"
   id="path101"
   inkscape:connector-curvature="0"
   style="fill:#3a7ead" />
        </g>
        <g
   transform="translate(80.04,126.87)"
   id="g107">
          <path
   d="m 0,0 63.992,32.217 c 0.022,-10e-4 0.044,-0.003 0.066,-0.006 0.022,-0.003 0.043,-0.007 0.064,-0.012 0.021,-0.005 0.042,-0.011 0.063,-0.018 0.02,-0.007 0.04,-0.015 0.06,-0.025 L 0.269,-0.107 C 0.247,-0.094 0.225,-0.081 0.203,-0.07 0.181,-0.059 0.158,-0.048 0.136,-0.039 0.113,-0.029 0.091,-0.021 0.068,-0.016 0.045,-0.009 0.022,-0.003 0,0"
   id="path105"
   inkscape:connector-curvature="0"
   style="fill:#4b9ed7" />
        </g>
        <g
   transform="translate(80.31,126.76)"
   id="g111">
          <path
   d="m 0,0 63.976,32.264 c 0.094,-0.042 0.18,-0.104 0.257,-0.172 0.077,-0.069 0.143,-0.144 0.2,-0.215 0.056,-0.072 0.101,-0.139 0.132,-0.19 0.033,-0.052 0.052,-0.087 0.056,-0.095 L 0.792,-0.898 C 0.785,-0.888 0.759,-0.842 0.716,-0.776 0.673,-0.71 0.614,-0.623 0.542,-0.529 0.471,-0.436 0.387,-0.336 0.295,-0.243 0.204,-0.149 0.104,-0.064 0,0"
   id="path109"
   inkscape:connector-curvature="0"
   style="fill:#5abdff" />
        </g>
      </g>
      <g
   clip-path="url(#x)"
   id="g123">
        <g
   transform="translate(166.4,55.239)"
   id="g117">
          <path
   d="M 0,0 49.721,54.932 C 49.715,54.897 49.709,54.863 49.702,54.829 49.695,54.795 49.688,54.761 49.681,54.728 49.673,54.694 49.665,54.661 49.657,54.629 49.648,54.596 49.64,54.563 49.63,54.532 L -0.046,-0.454 c 0.006,0.035 0.011,0.072 0.016,0.109 0.005,0.036 0.009,0.074 0.013,0.113 0.004,0.038 0.007,0.076 0.01,0.115 C -0.004,-0.079 -0.002,-0.039 0,0"
   id="path115"
   inkscape:connector-curvature="0"
   style="fill:#4b9ed7" />
        </g>
        <g
   transform="translate(166.36,54.785)"
   id="g121">
          <path
   d="m 0,0 49.676,54.986 c -0.024,-0.082 -0.05,-0.162 -0.079,-0.238 -0.029,-0.076 -0.061,-0.149 -0.096,-0.219 -0.035,-0.069 -0.073,-0.134 -0.114,-0.196 -0.041,-0.061 -0.084,-0.118 -0.131,-0.17 L -0.361,-0.882 c 0.046,0.051 0.088,0.109 0.126,0.172 0.037,0.064 0.071,0.133 0.101,0.207 0.03,0.075 0.056,0.154 0.078,0.238 C -0.034,-0.181 -0.015,-0.093 0,0"
   id="path119"
   inkscape:connector-curvature="0"
   style="fill:#3a7ead" />
        </g>
      </g>
      <g
   clip-path="url(#y)"
   id="g141">
        <g
   transform="translate(87.473,99.685)"
   id="g127">
          <path
   d="m 0,0 59.421,36.712 c 0.012,0.008 0.025,0.015 0.04,0.022 0.016,0.008 0.034,0.016 0.054,0.024 0.02,0.009 0.042,0.016 0.068,0.025 0.025,0.009 0.053,0.018 0.084,0.027 0.009,0.003 0.021,0.003 0.037,0.003 0.016,0 0.036,-0.001 0.059,-0.003 0.023,-0.003 0.049,-0.007 0.079,-0.012 0.03,-0.005 0.063,-0.012 0.099,-0.019 L 0.512,-0.011 C 0.473,0.005 0.438,0.018 0.407,0.028 0.376,0.039 0.349,0.048 0.325,0.055 0.302,0.062 0.282,0.066 0.266,0.069 0.25,0.072 0.237,0.073 0.229,0.071 0.199,0.066 0.173,0.061 0.149,0.056 0.125,0.05 0.104,0.044 0.085,0.038 0.066,0.031 0.05,0.025 0.036,0.02 0.022,0.013 0.01,0.007 0,0"
   id="path125"
   inkscape:connector-curvature="0"
   style="fill:#3a7ead" />
        </g>
        <g
   transform="translate(87.985,99.674)"
   id="g131">
          <path
   d="m 0,0 59.43,36.79 c 1.055,-0.216 4.943,-1.448 10.379,-3.249 5.599,-1.854 12.933,-4.342 20.561,-6.962 7.931,-2.724 16.192,-5.596 22.979,-7.989 7.011,-2.473 12.335,-4.397 13.896,-5.047 l -50.3,-54.147 c -1.883,1.123 -8.227,4.579 -16.491,9.014 -7.913,4.249 -17.424,9.309 -26.433,14.067 -8.562,4.52 -16.69,8.779 -22.826,11.945 C 5.294,-2.529 1.112,-0.43 0.005,0"
   id="path129"
   inkscape:connector-curvature="0"
   style="fill:#4b9ed7" />
        </g>
        <g
   transform="translate(164.93,59.069)"
   id="g135">
          <path
   d="m 0,0 50.3,54.147 c 0.068,-0.028 0.128,-0.053 0.181,-0.077 0.054,-0.023 0.1,-0.044 0.138,-0.062 0.038,-0.018 0.069,-0.033 0.092,-0.047 0.023,-0.013 0.039,-0.023 0.046,-0.031 0.058,-0.061 0.112,-0.138 0.162,-0.229 0.049,-0.091 0.094,-0.195 0.133,-0.31 0.04,-0.115 0.074,-0.241 0.104,-0.374 0.029,-0.134 0.052,-0.275 0.07,-0.421 L 1.291,-2.059 c -0.042,0.179 -0.09,0.353 -0.143,0.519 -0.053,0.165 -0.111,0.323 -0.173,0.47 -0.063,0.145 -0.129,0.28 -0.2,0.399 -0.069,0.119 -0.143,0.224 -0.218,0.31 -0.01,0.01 -0.03,0.026 -0.058,0.047 C 0.471,-0.293 0.433,-0.268 0.386,-0.237 0.34,-0.207 0.284,-0.172 0.22,-0.133 0.155,-0.093 0.082,-0.049 0,0"
   id="path133"
   inkscape:connector-curvature="0"
   style="fill:#5abdff" />
        </g>
        <g
   transform="translate(166.22,57.011)"
   id="g139">
          <path
   d="m 0,0 49.936,54.654 c 0.014,-0.12 0.024,-0.243 0.03,-0.368 0.007,-0.124 0.009,-0.251 0.006,-0.377 C 49.97,53.782 49.963,53.655 49.952,53.53 49.94,53.405 49.924,53.281 49.903,53.16 L 0.182,-1.771 c 0.006,0.139 0.007,0.283 0.002,0.429 -0.006,0.147 -0.017,0.296 -0.032,0.446 -0.016,0.15 -0.037,0.301 -0.063,0.452 C 0.064,-0.295 0.034,-0.146 0,0"
   id="path137"
   inkscape:connector-curvature="0"
   style="fill:#4b9ed7" />
        </g>
      </g>
      <g
   clip-path="url(#z)"
   id="g171">
        <g
   transform="translate(81.386,126.1)"
   id="g145">
          <path
   d="m 0,0 63.873,32.489 c 0.038,0.02 0.079,0.038 0.123,0.055 0.044,0.018 0.09,0.032 0.14,0.045 0.05,0.013 0.102,0.022 0.158,0.029 0.055,0.007 0.113,0.01 0.173,0.008 L 0.576,0.077 C 0.515,0.088 0.456,0.093 0.401,0.093 0.347,0.093 0.295,0.088 0.247,0.08 0.199,0.072 0.155,0.062 0.113,0.047 0.072,0.033 0.034,0.018 0,0"
   id="path143"
   inkscape:connector-curvature="0"
   style="fill:#3a7ead" />
        </g>
        <g
   transform="translate(81.962,126.18)"
   id="g149">
          <path
   d="m 0,0 63.891,32.549 c 0.012,0 0.025,0 0.037,-10e-4 0.012,-0.001 0.025,-0.002 0.037,-0.002 0.013,-0.002 0.026,-0.003 0.038,-0.004 0.013,-0.002 0.026,-0.003 0.039,-0.005 0.053,-0.008 0.103,-0.016 0.152,-0.025 0.049,-0.01 0.096,-0.021 0.141,-0.033 0.046,-0.013 0.091,-0.028 0.136,-0.043 0.044,-0.016 0.088,-0.035 0.133,-0.054 L 0.759,-0.304 C 0.71,-0.273 0.661,-0.245 0.613,-0.22 0.564,-0.194 0.516,-0.171 0.466,-0.149 0.417,-0.127 0.367,-0.107 0.315,-0.089 0.264,-0.07 0.211,-0.053 0.156,-0.036 0.143,-0.032 0.129,-0.028 0.116,-0.024 0.103,-0.021 0.089,-0.019 0.076,-0.015 0.063,-0.012 0.051,-0.01 0.038,-0.007 0.025,-0.004 0.013,-0.002 0,0"
   id="path147"
   inkscape:connector-curvature="0"
   style="fill:#4b9ed7" />
        </g>
        <g
   transform="translate(82.722,125.88)"
   id="g153">
          <path
   d="m 0,0 63.844,32.686 c 0.087,-0.04 0.175,-0.085 0.268,-0.142 0.094,-0.057 0.193,-0.122 0.304,-0.2 0.11,-0.077 0.232,-0.166 0.37,-0.269 0.137,-0.102 0.291,-0.219 0.465,-0.35 0.009,-0.007 0.022,-0.015 0.04,-0.024 0.017,-0.009 0.038,-0.018 0.064,-0.029 0.025,-0.012 0.055,-0.024 0.088,-0.036 0.034,-0.014 0.071,-0.028 0.113,-0.043 L 1.966,-1.559 C 1.921,-1.535 1.88,-1.513 1.843,-1.492 1.806,-1.472 1.774,-1.452 1.746,-1.436 1.717,-1.419 1.693,-1.403 1.674,-1.391 1.654,-1.377 1.639,-1.366 1.629,-1.356 1.424,-1.174 1.244,-1.012 1.083,-0.869 0.922,-0.726 0.78,-0.602 0.651,-0.492 0.523,-0.383 0.408,-0.289 0.301,-0.208 0.195,-0.127 0.096,-0.059 0,0"
   id="path151"
   inkscape:connector-curvature="0"
   style="fill:#5abdff" />
        </g>
        <g
   transform="translate(84.688,124.32)"
   id="g157">
          <path
   d="m 0,0 63.589,33.151 c 1.128,-0.411 5.198,-1.585 10.878,-3.178 5.857,-1.643 13.529,-3.761 21.517,-5.966 8.322,-2.298 17.001,-4.694 24.133,-6.693 7.38,-2.067 12.976,-3.672 14.573,-4.233 L 81.455,-36.646 c -1.959,1.01 -8.721,4.082 -17.531,8.026 -8.408,3.764 -18.495,8.24 -28.028,12.47 -9.023,4.004 -17.577,7.798 -24.037,10.694 C 5.653,-2.675 1.236,-0.66 0,0"
   id="path155"
   inkscape:connector-curvature="0"
   style="fill:#4b9ed7" />
        </g>
        <g
   transform="translate(166.14,87.67)"
   id="g161">
          <path
   d="m 0,0 53.236,49.728 c 0.063,-0.023 0.12,-0.043 0.171,-0.062 0.051,-0.02 0.094,-0.036 0.132,-0.052 0.037,-0.015 0.067,-0.029 0.091,-0.041 0.024,-0.011 0.041,-0.021 0.051,-0.03 0.093,-0.076 0.175,-0.162 0.246,-0.257 0.071,-0.095 0.131,-0.198 0.181,-0.308 0.051,-0.11 0.091,-0.227 0.122,-0.349 0.032,-0.123 0.054,-0.25 0.068,-0.382 L 1.47,-2.05 C 1.434,-1.884 1.388,-1.721 1.333,-1.563 1.278,-1.404 1.213,-1.251 1.137,-1.104 1.062,-0.957 0.975,-0.816 0.878,-0.685 0.78,-0.553 0.671,-0.43 0.551,-0.316 0.538,-0.305 0.516,-0.288 0.486,-0.269 0.457,-0.25 0.418,-0.227 0.373,-0.2 0.326,-0.174 0.272,-0.144 0.21,-0.11 0.148,-0.077 0.078,-0.04 0,0"
   id="path159"
   inkscape:connector-curvature="0"
   style="fill:#5abdff" />
        </g>
        <g
   transform="translate(167.61,85.62)"
   id="g165">
          <path
   d="m 0,0 52.828,50.297 c 0.01,-0.09 0.016,-0.181 0.018,-0.274 0.002,-0.092 0.001,-0.186 -0.004,-0.281 C 52.838,49.647 52.83,49.552 52.819,49.456 52.809,49.36 52.794,49.265 52.778,49.168 52.77,49.122 52.761,49.076 52.752,49.03 52.743,48.985 52.733,48.939 52.723,48.894 52.712,48.849 52.702,48.803 52.69,48.758 52.679,48.713 52.667,48.668 52.654,48.623 L 0.044,-2.043 c 0.008,0.053 0.016,0.106 0.022,0.16 0.007,0.054 0.014,0.108 0.019,0.162 0.005,0.054 0.01,0.109 0.014,0.164 0.004,0.055 0.007,0.11 0.01,0.165 0.005,0.116 0.007,0.232 0.006,0.349 C 0.113,-0.927 0.108,-0.81 0.099,-0.692 0.09,-0.576 0.078,-0.46 0.062,-0.344 0.045,-0.229 0.024,-0.113 0,0"
   id="path163"
   inkscape:connector-curvature="0"
   style="fill:#4b9ed7" />
        </g>
        <g
   transform="translate(167.66,83.577)"
   id="g169">
          <path
   d="m 0,0 52.609,50.666 c -0.052,-0.188 -0.114,-0.372 -0.183,-0.547 -0.069,-0.174 -0.144,-0.34 -0.225,-0.494 -0.08,-0.153 -0.165,-0.294 -0.253,-0.418 -0.087,-0.125 -0.177,-0.232 -0.268,-0.32 L -0.825,-2.014 c 0.093,0.09 0.182,0.205 0.266,0.341 0.085,0.137 0.163,0.293 0.235,0.467 0.071,0.174 0.135,0.364 0.19,0.566 0.054,0.202 0.1,0.417 0.134,0.64"
   id="path167"
   inkscape:connector-curvature="0"
   style="fill:#3a7ead" />
        </g>
      </g>
      <g
   clip-path="url(#aa)"
   id="g221">
        <g
   transform="translate(166.4,55.239)"
   id="g175">
          <path
   d="m 0,0 c -0.011,-0.238 -0.04,-0.463 -0.088,-0.664 -0.049,-0.201 -0.117,-0.379 -0.208,-0.524 -0.091,-0.146 -0.204,-0.258 -0.343,-0.329 -0.138,-0.07 -0.3,-0.099 -0.49,-0.076 -0.333,0.038 -6.171,3.177 -14.455,7.699 -7.933,4.331 -17.915,9.823 -27.377,15.029 -8.975,4.937 -17.506,9.632 -23.696,13.008 -5.961,3.251 -9.899,5.359 -10.142,5.377 -0.244,0.019 -0.443,0.033 -0.614,0.051 -0.171,0.018 -0.315,0.038 -0.449,0.071 -0.134,0.032 -0.257,0.076 -0.388,0.138 -0.13,0.063 -0.268,0.144 -0.429,0.252 -0.17,0.114 -0.33,0.249 -0.474,0.388 -0.144,0.138 -0.272,0.279 -0.381,0.408 -0.108,0.129 -0.195,0.245 -0.258,0.331 -0.063,0.086 -0.1,0.143 -0.107,0.154 -0.004,-0.007 -0.026,-0.043 -0.069,-0.083 -0.042,-0.039 -0.104,-0.082 -0.186,-0.101 -0.083,-0.019 -0.187,-0.015 -0.314,0.038 -0.126,0.053 -0.274,0.155 -0.447,0.333 -0.258,0.266 -0.441,0.485 -0.577,0.674 -0.135,0.189 -0.223,0.347 -0.291,0.489 -0.067,0.143 -0.114,0.268 -0.168,0.393 -0.054,0.124 -0.114,0.247 -0.21,0.382 -0.095,0.136 -0.445,0.641 -0.94,1.444 -0.495,0.803 -1.136,1.903 -1.814,3.232 -0.679,1.333 -1.397,2.899 -2.045,4.631 -0.651,1.742 -1.235,3.66 -1.639,5.691 -0.409,2.052 -0.552,3.803 -0.532,5.283 0.021,1.497 0.21,2.716 0.46,3.686 0.253,0.981 0.568,1.705 0.837,2.203 0.27,0.502 0.491,0.773 0.552,0.845 0.061,0.071 0.084,0.167 0.096,0.274 0.013,0.107 0.016,0.224 0.038,0.339 0.022,0.116 0.063,0.229 0.152,0.326 0.09,0.097 0.229,0.178 0.445,0.23 0.145,0.036 0.293,-0.005 0.435,-0.088 0.141,-0.083 0.276,-0.207 0.394,-0.337 0.118,-0.131 0.219,-0.266 0.292,-0.375 0.074,-0.107 0.12,-0.185 0.128,-0.2 0.004,0.007 0.027,0.039 0.07,0.083 0.043,0.043 0.105,0.097 0.188,0.143 0.083,0.046 0.188,0.086 0.314,0.1 0.126,0.015 0.274,0.006 0.446,-0.045 0.162,-0.049 0.306,-0.105 0.449,-0.179 0.144,-0.076 0.286,-0.168 0.447,-0.29 0.161,-0.122 0.34,-0.273 0.556,-0.461 0.217,-0.189 0.47,-0.417 0.78,-0.694 0.309,-0.275 4.516,-2.21 10.88,-5.068 6.632,-2.978 15.801,-7.046 25.503,-11.351 10.291,-4.566 21.217,-9.414 29.952,-13.333 9.167,-4.112 15.651,-7.078 16.008,-7.413 0.203,-0.19 0.372,-0.41 0.511,-0.649 0.138,-0.24 0.246,-0.5 0.327,-0.773 C 1.21,30.421 1.264,30.138 1.294,29.851 1.325,29.563 1.332,29.274 1.319,28.989 1.302,28.621 1.252,28.263 1.177,27.929 1.103,27.597 1.002,27.29 0.885,27.027 0.769,26.765 0.634,26.546 0.49,26.387 0.346,26.228 0.193,26.129 0.037,26.107 c -0.275,-0.038 -6.703,2.837 -15.835,7.026 -8.701,3.99 -19.619,9.063 -29.922,13.898 -9.718,4.561 -18.924,8.925 -25.6,12.154 -6.41,3.099 -10.668,5.239 -11.017,5.607 -0.196,0.207 -0.3,0.334 -0.359,0.419 -0.06,0.084 -0.076,0.127 -0.098,0.166 -0.021,0.039 -0.048,0.074 -0.128,0.144 -0.08,0.069 -0.213,0.173 -0.449,0.35 -0.233,0.174 -0.359,0.224 -0.429,0.203 -0.07,-0.021 -0.085,-0.113 -0.096,-0.223 -0.011,-0.11 -0.02,-0.237 -0.076,-0.33 -0.057,-0.091 -0.162,-0.147 -0.368,-0.116 -0.206,0.032 -0.485,0.048 -0.76,-0.084 -0.273,-0.13 -0.543,-0.406 -0.734,-0.959 -0.191,-0.549 -0.303,-1.369 -0.266,-2.586 0.037,-1.208 0.223,-2.801 0.625,-4.902 0.398,-2.074 0.837,-3.749 1.285,-5.106 0.445,-1.35 0.902,-2.394 1.338,-3.205 0.436,-0.811 0.852,-1.392 1.214,-1.815 0.364,-0.424 0.674,-0.688 0.896,-0.863 0.222,-0.176 0.363,-0.346 0.462,-0.503 0.098,-0.157 0.155,-0.303 0.208,-0.433 0.053,-0.129 0.104,-0.242 0.191,-0.335 0.086,-0.093 0.21,-0.166 0.409,-0.214 0.201,-0.048 0.313,-0.073 0.378,-0.079 0.065,-0.006 0.081,0.005 0.091,0.026 0.01,0.021 0.013,0.05 0.05,0.082 0.036,0.031 0.107,0.062 0.252,0.088 0.261,0.044 4.292,-1.959 10.397,-5.103 6.352,-3.27 15.118,-7.861 24.353,-12.739 9.758,-5.154 20.063,-10.641 28.245,-15.043 C -7.153,7.029 -1.16,3.742 -0.916,3.469 -0.778,3.313 -0.648,3.096 -0.532,2.838 -0.416,2.579 -0.313,2.281 -0.229,1.964 -0.146,1.646 -0.082,1.31 -0.042,0.976 -0.001,0.642 0.014,0.31 0,0"
   id="path173"
   inkscape:connector-curvature="0"
   style="fill:#295e82" />
        </g>
        <g
   transform="translate(84,120.45)"
   id="g179">
          <path
   d="M 0,0 C 0,0 -0.833,-5.334 1,-10.667 2.833,-16 6.333,-19 6.333,-19 l 1,0.5 c 0,0 13.334,-6.499 32.834,-15.833 C 59.667,-43.667 80,-54.834 80.5,-55 81,-55.166 75.583,-45.563 79.083,-37.729 79.083,-37.729 37.5,-19.333 0,0"
   id="path177"
   inkscape:connector-curvature="0"
   style="fill:#e0d1ba" />
        </g>
        <g
   transform="translate(84.219,112.79)"
   id="g183">
          <path
   d="m 0,0 c -0.764,4.159 -0.218,7.654 -0.218,7.654 37.5,-19.333 79.083,-37.729 79.083,-37.729 -1.282,-2.869 -1.368,-5.977 -0.986,-8.754 0,0 -27.014,14.733 -34.264,17.733 0,0 -2.5,-2.75 -10,-2.5 l -10.833,5.083 -0.5,7.334 z"
   id="path181"
   inkscape:connector-curvature="0"
   style="fill:#998c7d" />
        </g>
        <g
   transform="translate(166.35,81.362)"
   id="g187">
          <path
   d="m 0,0 -3.271,1.354 c -3.5,-7.833 1.917,-17.437 1.417,-17.271 0,0 24.167,25.833 33.5,35 l -12.167,-0.5 C 19.479,18.583 0.958,0.688 0.521,0.25 0.188,-0.084 0,0 0,0"
   id="path185"
   inkscape:connector-curvature="0"
   style="fill:#eadfd0" />
        </g>
        <g
   transform="translate(166.35,81.362)"
   id="g191">
          <path
   d="m 0,0 -3.271,1.354 c -0.935,-2.092 -1.233,-4.311 -1.179,-6.436 0.021,-0.795 0.195,-2.335 0.195,-2.335 l 20.669,20.819 c 0,0 3.815,-1.653 8.732,-1.07 0.083,0.01 6.583,6.75 6.583,6.75 L 21.646,18.672 19.479,18.583 C 19.479,18.583 0.958,0.688 0.521,0.25 0.188,-0.084 0,0 0,0"
   id="path189"
   inkscape:connector-curvature="0"
   style="fill:#ccbeaa" />
        </g>
        <g
   transform="translate(161.83,75.32)"
   id="g195">
          <path
   d="M 0,0 -21.188,10.938 0,0.438 14.188,13.875 Z"
   id="path193"
   inkscape:connector-curvature="0"
   style="fill:#635c51" />
        </g>
        <g
   transform="translate(127.33,89.695)"
   id="g199">
          <path
   d="m 0,0 35.125,-18.125 21.625,21.5 -21.625,-21 z"
   id="path197"
   inkscape:connector-curvature="0"
   style="fill:#998c7d" />
        </g>
        <g
   transform="translate(84,120.45)"
   id="g203">
          <path
   d="M 0,0 C 0,0 -0.535,-3.785 0.218,-7.654 1.583,-14.667 6.333,-19 6.333,-19 c 0,0 -0.25,-1.084 -1.166,-0.417 0,0 -4.917,4.501 -6,12.084 -0.667,4.667 0.083,7.75 0.083,7.75 z"
   id="path201"
   inkscape:connector-curvature="0"
   style="fill:#635c51" />
        </g>
        <g
   transform="translate(107,94.278)"
   id="g207">
          <path
   d="m 0,0 0.5,-4.542 5.042,-2.667 5.291,2.126 z"
   id="path205"
   inkscape:connector-curvature="0"
   style="fill:#3a7ead" />
        </g>
        <g
   transform="translate(199.25,93.278)"
   id="g211">
          <path
   d="M 0,0 C 0,0 0.521,-1.146 0.396,-1.708 L 8.896,7.729 7,7.5 Z"
   id="path209"
   inkscape:connector-curvature="0"
   style="fill:#3a7ead" />
        </g>
        <g
   transform="translate(197.25,93.861)"
   id="g215">
          <path
   d="m 0,0 c 0,0 1,0.333 2,-0.583 l 7,7.5 H 6.333 Z"
   id="path213"
   inkscape:connector-curvature="0"
   style="fill:#4b9ed7" />
        </g>
        <g
   transform="translate(191.5,93.694)"
   id="g219">
          <path
   d="m 0,0 6.583,6.75 5.5,0.334 L 5.75,0.167 Z"
   id="path217"
   inkscape:connector-curvature="0"
   style="fill:#3a7ead" />
        </g>
      </g>
      <g
   clip-path="url(#ab)"
   id="g247">
        <g
   transform="translate(100.56,119.8)"
   id="g225">
          <path
   d="M 0,0 9.095,45.738 C 9.032,45.419 8.978,45.074 8.937,44.7 8.895,44.327 8.865,43.926 8.849,43.494 8.833,43.063 8.831,42.604 8.844,42.11 8.857,41.619 8.886,41.096 8.932,40.538 8.996,39.759 9.082,39.052 9.187,38.41 9.291,37.77 9.413,37.195 9.549,36.678 9.685,36.161 9.835,35.702 9.995,35.294 10.155,34.887 10.325,34.53 10.5,34.217 L 2.338,-14.918 c -0.26,0.397 -0.514,0.851 -0.755,1.37 -0.241,0.521 -0.47,1.108 -0.68,1.77 -0.21,0.664 -0.402,1.403 -0.57,2.228 -0.169,0.828 -0.313,1.743 -0.427,2.753 -0.082,0.724 -0.138,1.404 -0.171,2.045 -0.032,0.642 -0.042,1.243 -0.03,1.806 0.011,0.564 0.043,1.091 0.093,1.58 C -0.152,-0.875 -0.083,-0.421 0,0"
   id="path223"
   inkscape:connector-curvature="0"
   style="fill:#3a7ead" />
        </g>
        <g
   transform="translate(102.89,104.88)"
   id="g229">
          <path
   d="m 0,0 8.162,49.135 c 0.254,-0.452 0.52,-0.814 0.787,-1.103 0.266,-0.289 0.532,-0.506 0.788,-0.671 0.255,-0.164 0.498,-0.276 0.718,-0.355 0.219,-0.079 0.415,-0.125 0.575,-0.156 0.104,-0.02 0.191,-0.046 0.266,-0.077 0.074,-0.03 0.136,-0.065 0.187,-0.102 0.051,-0.038 0.092,-0.078 0.126,-0.12 0.035,-0.041 0.062,-0.084 0.085,-0.127 L 5.139,-3.368 C 5.104,-3.314 5.064,-3.261 5.014,-3.209 4.964,-3.156 4.904,-3.106 4.83,-3.06 4.755,-3.013 4.667,-2.971 4.56,-2.934 4.452,-2.897 4.326,-2.866 4.176,-2.844 3.946,-2.809 3.664,-2.756 3.347,-2.662 3.03,-2.567 2.678,-2.431 2.308,-2.228 1.938,-2.024 1.549,-1.754 1.159,-1.392 0.769,-1.028 0.376,-0.573 0,0"
   id="path227"
   inkscape:connector-curvature="0"
   style="fill:#4c9dd7" />
        </g>
        <g
   transform="translate(108.03,101.51)"
   id="g233">
          <path
   d="m 0,0 6.556,49.792 c 0.01,-0.019 0.02,-0.038 0.029,-0.057 0.01,-0.019 0.019,-0.038 0.027,-0.055 0.009,-0.019 0.017,-0.036 0.026,-0.054 0.008,-0.018 0.017,-0.034 0.026,-0.051 L 0.16,-0.274 C 0.146,-0.254 0.134,-0.232 0.121,-0.21 0.108,-0.188 0.096,-0.166 0.083,-0.143 0.071,-0.12 0.058,-0.096 0.044,-0.072 0.03,-0.049 0.016,-0.024 0,0"
   id="path231"
   inkscape:connector-curvature="0"
   style="fill:#3a7ead" />
        </g>
        <g
   transform="translate(108.19,101.24)"
   id="g237">
          <path
   d="m 0,0 6.504,49.85 c 0.023,-0.041 0.048,-0.079 0.079,-0.109 0.032,-0.03 0.07,-0.053 0.121,-0.068 0.049,-0.016 0.111,-0.022 0.188,-0.017 0.078,0.005 0.171,0.022 0.285,0.051 0.043,0.011 0.083,0.021 0.12,0.03 0.037,0.01 0.071,0.019 0.103,0.028 0.031,0.007 0.06,0.015 0.087,0.023 0.026,0.007 0.051,0.015 0.073,0.021 L 1.514,-0.021 C 1.482,-0.029 1.448,-0.039 1.41,-0.05 1.372,-0.06 1.331,-0.07 1.286,-0.082 1.24,-0.094 1.191,-0.106 1.139,-0.119 1.085,-0.133 1.028,-0.146 0.967,-0.162 0.804,-0.203 0.671,-0.227 0.56,-0.235 0.449,-0.243 0.361,-0.237 0.289,-0.22 0.217,-0.202 0.161,-0.173 0.115,-0.135 0.069,-0.098 0.033,-0.052 0,0"
   id="path235"
   inkscape:connector-curvature="0"
   style="fill:#4c9dd7" />
        </g>
        <g
   transform="translate(109.71,101.22)"
   id="g241">
          <path
   d="m 0,0 6.046,49.829 c 0.111,0.033 0.168,0.055 0.2,0.075 0.032,0.021 0.04,0.04 0.054,0.066 0.015,0.026 0.036,0.059 0.096,0.109 0.059,0.05 0.156,0.116 0.322,0.207 0.01,0.006 0.022,0.011 0.038,0.017 0.017,0.005 0.036,0.01 0.059,0.015 0.023,0.006 0.049,0.011 0.079,0.017 0.029,0.006 0.061,0.011 0.097,0.017 L 1.346,0.694 C 1.294,0.687 1.248,0.678 1.206,0.67 1.164,0.662 1.127,0.654 1.094,0.646 1.062,0.64 1.034,0.632 1.01,0.624 0.987,0.617 0.969,0.61 0.955,0.603 0.719,0.481 0.581,0.395 0.497,0.329 0.413,0.264 0.383,0.221 0.362,0.187 0.342,0.153 0.331,0.129 0.285,0.102 0.24,0.074 0.159,0.045 0,0"
   id="path239"
   inkscape:connector-curvature="0"
   style="fill:#3a7ead" />
        </g>
        <g
   transform="translate(111.05,101.91)"
   id="g245">
          <path
   d="m 0,0 5.645,49.657 c 1.285,0.203 6.669,0.465 14.005,0.735 7.3,0.269 16.51,0.546 25.526,0.782 8.958,0.234 17.724,0.429 24.272,0.538 6.514,0.107 10.852,0.131 11.024,0.022 0.023,-0.014 0.046,-0.031 0.068,-0.051 0.022,-0.02 0.043,-0.042 0.064,-0.068 0.021,-0.024 0.042,-0.052 0.062,-0.082 0.02,-0.029 0.039,-0.061 0.058,-0.095 L 106.38,4.421 c -0.023,0.043 -0.048,0.083 -0.073,0.12 -0.026,0.037 -0.052,0.071 -0.079,0.103 -0.028,0.03 -0.056,0.058 -0.085,0.083 -0.03,0.024 -0.06,0.045 -0.091,0.063 C 105.822,4.922 99.742,4.771 90.594,4.45 81.381,4.128 69.014,3.631 56.34,3.077 43.548,2.519 30.445,1.9 20.033,1.346 9.548,0.788 1.84,0.297 0.002,0"
   id="path243"
   inkscape:connector-curvature="0"
   style="fill:#4c9dd7" />
        </g>
      </g>
      <g
   clip-path="url(#ac)"
   id="g257">
        <g
   transform="translate(104.16,131.21)"
   id="g251">
          <path
   d="m 0,0 8.11,42.903 c 0.006,0.007 0.034,0.04 0.083,0.088 0.049,0.049 0.119,0.113 0.209,0.183 0.091,0.07 0.201,0.145 0.33,0.216 0.129,0.07 0.277,0.135 0.443,0.184 L 1.547,0.922 C 1.305,0.852 1.089,0.761 0.901,0.664 0.714,0.566 0.554,0.464 0.423,0.368 0.292,0.273 0.19,0.186 0.12,0.119 0.049,0.054 0.008,0.009 0,0"
   id="path249"
   inkscape:connector-curvature="0"
   style="fill:#3a7ead" />
        </g>
        <g
   transform="translate(105.71,132.13)"
   id="g255">
          <path
   d="m 0,0 7.627,42.652 c 0.027,0.009 0.054,0.016 0.081,0.024 0.028,0.007 0.056,0.013 0.084,0.019 0.028,0.007 0.057,0.012 0.086,0.018 0.03,0.005 0.059,0.01 0.089,0.014 0.207,0.03 0.387,0.042 0.563,0.037 0.176,-0.006 0.347,-0.031 0.537,-0.074 0.191,-0.043 0.4,-0.104 0.65,-0.187 0.251,-0.082 0.543,-0.185 0.899,-0.309 0.355,-0.124 5.417,-0.048 12.797,0.125 7.341,0.173 16.956,0.444 26.5,0.712 9.483,0.267 18.896,0.532 25.978,0.699 7.047,0.167 11.806,0.237 12.056,0.117 0.036,-0.019 0.071,-0.038 0.104,-0.061 0.033,-0.022 0.064,-0.047 0.094,-0.072 0.03,-0.026 0.058,-0.055 0.084,-0.084 0.027,-0.03 0.052,-0.062 0.075,-0.095 L 116.74,3.108 c -0.031,0.044 -0.063,0.085 -0.099,0.123 -0.035,0.04 -0.073,0.076 -0.113,0.11 -0.04,0.033 -0.083,0.064 -0.128,0.094 -0.045,0.028 -0.093,0.053 -0.144,0.077 -0.34,0.153 -7.15,-0.051 -17.248,-0.438 C 88.836,2.685 75.279,2.109 61.582,1.528 47.756,0.942 33.786,0.35 23.091,-0.059 12.316,-0.471 4.91,-0.695 4.386,-0.539 3.863,-0.383 3.433,-0.253 3.064,-0.149 2.695,-0.045 2.387,0.033 2.107,0.086 1.827,0.139 1.575,0.166 1.317,0.169 1.059,0.173 0.795,0.151 0.493,0.106 0.449,0.101 0.405,0.094 0.362,0.086 0.32,0.078 0.278,0.07 0.236,0.061 0.195,0.052 0.154,0.042 0.114,0.032 0.074,0.021 0.035,0.011 -0.004,0"
   id="path253"
   inkscape:connector-curvature="0"
   style="fill:#4c9dd7" />
        </g>
      </g>
      <g
   clip-path="url(#ad)"
   id="g267">
        <g
   transform="translate(94.944,120)"
   id="g261">
          <path
   d="m 0,0 10.861,45.768 c 0.258,1.085 0.602,2.06 0.98,2.92 0.378,0.863 0.789,1.606 1.177,2.223 0.389,0.618 0.754,1.109 1.04,1.462 0.285,0.354 0.491,0.571 0.562,0.644 0.096,0.099 0.144,0.204 0.181,0.314 0.037,0.11 0.063,0.227 0.114,0.351 0.051,0.123 0.128,0.253 0.268,0.39 0.14,0.138 0.342,0.283 0.644,0.437 0.016,0.009 0.032,0.015 0.048,0.023 0.015,0.007 0.031,0.014 0.047,0.02 0.016,0.007 0.031,0.012 0.047,0.017 0.015,0.006 0.031,0.011 0.046,0.016 L 7.282,11.808 C 7.259,11.801 7.236,11.794 7.214,11.786 7.191,11.779 7.168,11.771 7.146,11.762 7.123,11.753 7.1,11.744 7.077,11.733 7.054,11.724 7.031,11.713 7.007,11.702 6.568,11.489 6.275,11.29 6.074,11.104 5.873,10.916 5.764,10.741 5.691,10.575 5.62,10.41 5.585,10.254 5.534,10.105 5.483,9.958 5.415,9.817 5.276,9.683 5.175,9.584 4.879,9.29 4.47,8.813 4.062,8.335 3.542,7.675 2.991,6.845 2.441,6.018 1.863,5.022 1.336,3.873 0.812,2.729 0.34,1.433 0,0"
   id="path259"
   inkscape:connector-curvature="0"
   style="fill:#3a7ead" />
        </g>
        <g
   transform="translate(102.23,131.81)"
   id="g265">
          <path
   d="m 0,0 8.733,42.777 c 0.18,0.054 0.349,0.054 0.503,0.022 0.154,-0.031 0.292,-0.094 0.409,-0.164 0.117,-0.071 0.212,-0.15 0.28,-0.212 0.068,-0.064 0.109,-0.11 0.117,-0.12 L 1.932,-0.601 C 1.92,-0.589 1.859,-0.526 1.758,-0.443 1.656,-0.361 1.515,-0.259 1.342,-0.168 1.169,-0.077 0.964,0.004 0.738,0.042 0.511,0.08 0.262,0.076 0,0"
   id="path263"
   inkscape:connector-curvature="0"
   style="fill:#4c9dd7" />
        </g>
      </g>
      <g
   clip-path="url(#ae)"
   id="g301">
        <g
   transform="translate(217.69,103.75)"
   id="g271">
          <path
   d="m 0,0 c -0.042,-0.245 -0.102,-0.488 -0.182,-0.72 -0.079,-0.23 -0.178,-0.45 -0.298,-0.65 -0.121,-0.2 -0.262,-0.382 -0.426,-0.535 -0.163,-0.155 -0.35,-0.281 -0.561,-0.372 -0.369,-0.159 -6.662,-0.481 -15.976,-0.887 -9.379,-0.41 -21.868,-0.907 -34.487,-1.411 -12.74,-0.508 -25.615,-1.022 -35.47,-1.452 -9.926,-0.434 -16.738,-0.782 -17.193,-0.952 -0.455,-0.168 -0.827,-0.308 -1.148,-0.422 -0.32,-0.114 -0.588,-0.202 -0.835,-0.266 -0.246,-0.064 -0.471,-0.106 -0.706,-0.129 -0.234,-0.022 -0.477,-0.024 -0.76,-0.011 -0.298,0.017 -0.572,0.068 -0.816,0.136 -0.244,0.068 -0.457,0.152 -0.635,0.236 -0.178,0.084 -0.32,0.167 -0.42,0.232 -0.1,0.063 -0.159,0.109 -0.17,0.117 -0.009,-0.012 -0.061,-0.078 -0.151,-0.165 -0.091,-0.086 -0.221,-0.192 -0.386,-0.286 -0.165,-0.093 -0.365,-0.172 -0.597,-0.204 -0.232,-0.031 -0.496,-0.016 -0.789,0.081 -0.44,0.145 -0.744,0.291 -0.963,0.433 -0.219,0.144 -0.352,0.284 -0.449,0.417 -0.098,0.135 -0.16,0.264 -0.235,0.386 -0.075,0.122 -0.165,0.236 -0.318,0.341 -0.154,0.104 -0.719,0.498 -1.499,1.174 -0.783,0.678 -1.785,1.641 -2.807,2.887 -1.029,1.252 -2.081,2.794 -2.954,4.62 -0.881,1.842 -1.582,3.979 -1.89,6.407 -0.312,2.456 -0.16,4.703 0.257,6.703 0.422,2.017 1.111,3.777 1.861,5.245 0.753,1.476 1.567,2.651 2.228,3.493 0.662,0.844 1.17,1.349 1.308,1.484 0.139,0.134 0.207,0.275 0.258,0.423 0.051,0.148 0.085,0.304 0.157,0.469 0.073,0.166 0.182,0.341 0.383,0.529 0.201,0.186 0.494,0.385 0.933,0.598 0.293,0.141 0.575,0.184 0.833,0.168 0.258,-0.015 0.492,-0.091 0.692,-0.184 0.199,-0.094 0.363,-0.207 0.48,-0.3 0.118,-0.093 0.189,-0.166 0.201,-0.179 0.01,0.011 0.063,0.068 0.156,0.152 0.094,0.085 0.228,0.196 0.401,0.31 0.174,0.114 0.386,0.233 0.634,0.335 0.249,0.103 0.534,0.187 0.853,0.231 0.303,0.045 0.566,0.067 0.824,0.063 0.258,-0.003 0.511,-0.03 0.791,-0.083 0.28,-0.053 0.588,-0.131 0.956,-0.235 0.37,-0.104 0.799,-0.234 1.323,-0.39 0.523,-0.156 7.929,0.068 18.704,0.48 10.696,0.409 24.665,1.001 38.492,1.587 13.696,0.581 27.254,1.157 37.426,1.546 10.098,0.387 16.903,0.591 17.249,0.438 0.197,-0.09 0.353,-0.223 0.474,-0.39 0.121,-0.167 0.206,-0.369 0.26,-0.595 C 5.086,30.679 5.11,30.429 5.108,30.165 5.106,29.9 5.078,29.622 5.03,29.34 4.967,28.974 4.871,28.601 4.749,28.24 4.628,27.881 4.483,27.534 4.324,27.221 4.165,26.908 3.993,26.628 3.818,26.403 3.643,26.178 3.463,26.006 3.291,25.909 2.986,25.734 -3.812,25.344 -13.924,24.868 c -10.183,-0.479 -23.78,-1.047 -37.536,-1.569 -13.892,-0.527 -27.954,-1.006 -38.745,-1.296 -10.88,-0.292 -18.388,-0.39 -18.97,-0.148 -0.326,0.137 -0.494,0.232 -0.589,0.301 -0.095,0.07 -0.116,0.114 -0.148,0.149 -0.032,0.036 -0.074,0.062 -0.212,0.098 -0.137,0.035 -0.369,0.079 -0.781,0.149 -0.41,0.071 -0.641,0.052 -0.782,-0.021 -0.141,-0.074 -0.191,-0.203 -0.239,-0.353 -0.049,-0.152 -0.095,-0.324 -0.227,-0.483 -0.132,-0.159 -0.35,-0.305 -0.743,-0.406 -0.395,-0.099 -0.934,-0.267 -1.504,-0.625 -0.569,-0.358 -1.167,-0.907 -1.68,-1.767 -0.511,-0.856 -0.936,-2.019 -1.161,-3.603 -0.224,-1.572 -0.249,-3.553 0.032,-6.047 0.279,-2.464 0.737,-4.36 1.291,-5.826 0.549,-1.454 1.195,-2.489 1.854,-3.23 0.657,-0.737 1.329,-1.184 1.933,-1.462 0.604,-0.278 1.142,-0.388 1.531,-0.447 0.387,-0.058 0.618,-0.171 0.771,-0.301 0.152,-0.13 0.226,-0.278 0.298,-0.407 0.071,-0.129 0.141,-0.239 0.286,-0.293 0.144,-0.054 0.364,-0.053 0.734,0.04 0.373,0.092 0.583,0.149 0.705,0.19 0.123,0.042 0.158,0.068 0.182,0.102 0.023,0.034 0.036,0.074 0.113,0.143 0.077,0.068 0.219,0.164 0.502,0.309 0.506,0.259 7.581,0.739 17.868,1.3 10.219,0.559 23.555,1.195 36.737,1.777 13.057,0.575 25.958,1.096 35.606,1.438 9.577,0.34 15.989,0.503 16.228,0.367 0.134,-0.076 0.252,-0.218 0.35,-0.41 C -0.113,2.346 -0.036,2.105 0.018,1.836 0.071,1.566 0.101,1.267 0.104,0.954 0.107,0.643 0.082,0.318 0.028,0"
   id="path269"
   inkscape:connector-curvature="0"
   style="fill:#295e82" />
        </g>
        <g
   transform="translate(102.83,105.03)"
   id="g275">
          <path
   d="M 0,0 C 0,0 1.583,1.167 3.5,0.917 L 1.167,7.334 Z"
   id="path273"
   inkscape:connector-curvature="0"
   style="fill:#3a7ead" />
        </g>
        <g
   transform="translate(216.9,129.26)"
   id="g279">
          <path
   d="m 0,0 c 0,0 -2.729,-2.979 -4.229,-8.479 -1.202,-4.408 -1,-9 -0.834,-11 0,0 -13.416,-0.334 -34.666,-1.001 -21.25,-0.667 -66,-3.917 -66,-3.917 l -1.25,-0.417 -1.417,0.334 c 0,0 -3.199,0.089 -4.792,9.167 -1.25,7.125 -0.541,10.5 -0.541,10.5 0,0 0.083,0.167 1,0.417 0.916,0.25 1.041,0.271 1.291,0.521 0.25,0.25 0.137,1.221 1.313,1 1.562,-0.293 0.687,-0.543 1.937,-0.834 0.963,-0.224 18.75,0.209 18.75,0.209 0,0 44,1.437 89.438,3.5"
   id="path277"
   inkscape:connector-curvature="0"
   style="fill:#e0d1ba" />
        </g>
        <g
   transform="translate(103.67,115.78)"
   id="g283">
          <path
   d="m 0,0 c -1.25,7.125 -0.5,8.667 -0.5,8.667 0,0 0.083,0.167 1,0.417 0.917,0.25 1.042,0.27 1.292,0.52 0.25,0.25 0.136,1.221 1.312,1 1.563,-0.292 0.688,-0.542 1.938,-0.833 0.962,-0.224 18.75,0.208 18.75,0.208 0,0 44,1.438 89.437,3.5 0,0 -2.73,-2.979 -4.23,-8.479 0,0 -15.833,0.502 -39.833,-0.166 C 63.166,4.667 52.499,4 52.499,4 L 43.666,0.666 c -1.334,-0.5 -3.667,-1.667 -4.667,-1.5 -1,0.167 -5.167,3 -5.167,3 l -1.5,1.501 c 0,0 -6.93,-0.375 -16.5,-1.333 C 7.499,1.5 -0.001,0 -0.001,0"
   id="path281"
   inkscape:connector-curvature="0"
   style="fill:#998c7d" />
        </g>
        <g
   transform="translate(110,104.48)"
   id="g287">
          <path
   d="m 0,0 c 0.233,0.293 -0.417,0.419 -1.417,0.835 -1,0.416 -2.916,2.625 -4.458,8.584 -1.544,5.969 -0.292,10.875 -0.292,10.875 0,0 -0.479,-0.083 -0.854,-0.5 0,0 -0.657,-5.606 0.438,-10.542 C -4.708,0.794 -2,0.127 -1.167,-0.123 -0.333,-0.373 -0.333,-0.419 0,0"
   id="path285"
   inkscape:connector-curvature="0"
   style="fill:#635c51" />
        </g>
        <g
   transform="translate(212.04,117.61)"
   id="g291">
          <path
   d="m 0,0 c 0,0 -51.75,-1.042 -52.083,-1.042 l 52,0.625 z"
   id="path289"
   inkscape:connector-curvature="0"
   style="fill:#998c7d" />
        </g>
        <g
   transform="translate(212.21,118.88)"
   id="g295">
          <path
   d="M 0,0 -37.75,-0.313 0.083,0.396 Z"
   id="path293"
   inkscape:connector-curvature="0"
   style="fill:#998c7d" />
        </g>
        <g
   transform="translate(214.29,125.11)"
   id="g299">
          <path
   d="m 0,0 -41.458,-1.042 41.25,0.625 z"
   id="path297"
   inkscape:connector-curvature="0"
   style="fill:#635c51" />
        </g>
      </g>
      <g
   clip-path="url(#af)"
   id="g323">
        <g
   transform="translate(137.96,124.97)"
   id="g305">
          <path
   d="m 0,0 -39.349,45.475 c 0.008,-0.01 0.016,-0.019 0.025,-0.027 0.009,-0.008 0.018,-0.015 0.028,-0.022 0.01,-0.007 0.02,-0.013 0.031,-0.019 0.011,-0.005 0.023,-0.01 0.036,-0.013 L 0.144,-0.087 C 0.128,-0.084 0.114,-0.079 0.101,-0.074 0.087,-0.068 0.075,-0.062 0.063,-0.055 0.051,-0.047 0.04,-0.039 0.03,-0.03 0.019,-0.021 0.009,-0.011 0,0"
   id="path303"
   inkscape:connector-curvature="0"
   style="fill:#3a7ead" />
        </g>
        <g
   transform="translate(138.11,124.88)"
   id="g309">
          <path
   d="m 0,0 -39.374,45.48 c 0.027,-0.008 0.057,-0.013 0.091,-0.013 0.035,-10e-4 0.074,0.003 0.118,0.012 0.044,0.009 0.094,0.023 0.149,0.042 0.056,0.021 0.118,0.046 0.187,0.079 0.09,0.041 0.167,0.077 0.233,0.107 0.065,0.031 0.119,0.058 0.164,0.08 0.046,0.024 0.081,0.043 0.11,0.06 0.029,0.016 0.051,0.03 0.068,0.043 L 1.465,0.701 C 1.442,0.682 1.413,0.66 1.375,0.635 1.336,0.608 1.289,0.578 1.229,0.542 1.17,0.506 1.099,0.463 1.012,0.413 0.926,0.362 0.824,0.305 0.706,0.237 0.614,0.186 0.533,0.143 0.46,0.108 0.387,0.074 0.323,0.049 0.266,0.03 0.209,0.012 0.159,0.001 0.115,-0.004 0.071,-0.009 0.033,-0.007 0,0"
   id="path307"
   inkscape:connector-curvature="0"
   style="fill:#4c9dd7" />
        </g>
        <g
   transform="translate(139.57,125.58)"
   id="g313">
          <path
   d="m 0,0 -39.719,45.188 c 0.033,0.025 0.047,0.044 0.058,0.065 0.011,0.021 0.018,0.045 0.039,0.078 0.02,0.033 0.053,0.076 0.115,0.138 0.062,0.061 0.152,0.14 0.287,0.245 10e-4,0.001 0.002,0.001 0.003,0.002 l 0.003,0.003 c 0.002,10e-4 0.003,0.002 0.004,0.002 10e-4,0.001 0.002,0.002 0.004,0.003 L 0.704,0.771 C 0.702,0.77 0.701,0.769 0.699,0.767 0.697,0.766 0.695,0.765 0.694,0.763 L 0.689,0.76 C 0.688,0.758 0.687,0.757 0.685,0.756 0.504,0.6 0.381,0.483 0.297,0.395 0.212,0.307 0.166,0.245 0.137,0.199 0.107,0.152 0.096,0.121 0.08,0.093 0.064,0.063 0.044,0.037 0,0"
   id="path311"
   inkscape:connector-curvature="0"
   style="fill:#3a7ead" />
        </g>
        <g
   transform="translate(140.27,126.35)"
   id="g317">
          <path
   d="m 0,0 -39.91,44.953 c 0.461,0.299 5.482,1.51 12.612,3.117 6.927,1.563 15.725,3.473 24.209,5.278 8.181,1.739 16.079,3.381 21.922,4.56 5.689,1.148 9.525,1.874 9.9,1.844 L 83.999,27.962 C 83.58,27.956 79.133,26.597 72.478,24.478 65.582,22.282 56.151,19.219 46.251,15.956 35.848,12.528 24.905,8.873 16.174,5.883 7.086,2.771 0.615,0.457 0,0"
   id="path315"
   inkscape:connector-curvature="0"
   style="fill:#4c9dd7" />
        </g>
        <g
   transform="translate(224.27,154.32)"
   id="g321">
          <path
   d="m 0,0 -55.265,31.79 c 0.003,0 0.006,-10e-4 0.009,-10e-4 0.003,0 0.005,-0.001 0.007,-0.001 0.002,-0.001 0.004,-0.001 0.006,-0.002 0.001,0 0.003,-0.001 0.004,-0.002 L 0.028,-0.003 c -0.001,0 -0.002,0.001 -0.004,0.001 C 0.022,-0.001 0.02,-0.001 0.018,0 H 0"
   id="path319"
   inkscape:connector-curvature="0"
   style="fill:#3a7ead" />
        </g>
      </g>
      <g
   clip-path="url(#ag)"
   id="g329">
        <g
   transform="translate(133.99,119.1)"
   id="g327">
          <path
   d="m 0,0 -38.178,47.145 c -0.034,0.042 -0.064,0.084 -0.09,0.127 -0.025,0.042 -0.048,0.085 -0.07,0.126 -0.022,0.041 -0.043,0.082 -0.067,0.122 -0.023,0.039 -0.048,0.077 -0.077,0.112 L -0.343,0.583 C -0.31,0.541 -0.281,0.496 -0.255,0.449 -0.229,0.402 -0.206,0.353 -0.181,0.303 -0.157,0.253 -0.131,0.202 -0.103,0.151 -0.073,0.1 -0.04,0.049 0,0"
   id="path325"
   inkscape:connector-curvature="0"
   style="fill:#3a7ead" />
        </g>
      </g>
      <g
   clip-path="url(#ah)"
   id="g343">
        <g
   transform="translate(133.71,126.93)"
   id="g333">
          <path
   d="m 0,0 -38.56,45.424 c 0.141,-0.165 0.282,-0.31 0.422,-0.435 0.141,-0.126 0.281,-0.233 0.418,-0.324 0.137,-0.092 0.273,-0.168 0.405,-0.23 0.132,-0.063 0.26,-0.113 0.384,-0.153 L 1.982,-1.24 C 1.827,-1.208 1.667,-1.162 1.504,-1.101 1.341,-1.039 1.175,-0.961 1.007,-0.863 0.839,-0.765 0.67,-0.646 0.501,-0.504 0.333,-0.361 0.165,-0.194 0,0"
   id="path331"
   inkscape:connector-curvature="0"
   style="fill:#3a7ead" />
        </g>
        <g
   transform="translate(135.69,125.69)"
   id="g337">
          <path
   d="m 0,0 -38.913,45.522 c 0.094,-0.029 0.186,-0.053 0.274,-0.073 0.088,-0.019 0.173,-0.034 0.253,-0.045 0.081,-0.01 0.158,-0.018 0.23,-0.023 0.072,-0.005 0.139,-0.008 0.201,-0.009 0.035,0 0.068,-0.002 0.099,-0.005 0.031,-0.002 0.061,-0.006 0.089,-0.01 0.028,-0.003 0.055,-0.008 0.08,-0.014 0.025,-0.006 0.049,-0.013 0.072,-0.02 L 1.641,-0.063 C 1.612,-0.057 1.583,-0.052 1.551,-0.048 1.519,-0.044 1.485,-0.042 1.45,-0.041 1.415,-0.04 1.377,-0.04 1.337,-0.041 1.298,-0.043 1.256,-0.046 1.212,-0.05 1.132,-0.058 1.046,-0.064 0.955,-0.069 0.863,-0.074 0.766,-0.076 0.664,-0.074 0.562,-0.072 0.455,-0.065 0.344,-0.054 0.233,-0.042 0.118,-0.024 0,0"
   id="path335"
   inkscape:connector-curvature="0"
   style="fill:#4c9dd7" />
        </g>
        <g
   transform="translate(137.33,125.63)"
   id="g341">
          <path
   d="m 0,0 -39.255,45.386 c 0.034,-0.011 0.065,-0.024 0.094,-0.037 0.029,-0.014 0.055,-0.03 0.079,-0.045 0.024,-0.016 0.046,-0.033 0.066,-0.051 0.02,-0.018 0.038,-0.037 0.055,-0.056 L 0.357,-0.2 C 0.338,-0.178 0.317,-0.156 0.293,-0.136 0.27,-0.116 0.243,-0.097 0.214,-0.08 0.185,-0.063 0.153,-0.047 0.117,-0.033 0.082,-0.021 0.043,-0.009 0,0"
   id="path339"
   inkscape:connector-curvature="0"
   style="fill:#3a7ead" />
        </g>
      </g>
      <g
   clip-path="url(#ai)"
   id="g349">
        <g
   transform="translate(139.14,152.39)"
   id="g347">
          <path
   d="m 0,0 -41.179,38.956 c -0.009,0.009 -0.016,0.017 -0.023,0.024 -0.006,0.007 -0.011,0.014 -0.016,0.021 -0.006,0.007 -0.01,0.013 -0.015,0.019 -0.004,0.005 -0.009,0.01 -0.015,0.015 L -0.081,0.097 C -0.074,0.091 -0.069,0.084 -0.063,0.077 -0.058,0.07 -0.053,0.063 -0.047,0.055 -0.041,0.046 -0.035,0.038 -0.027,0.028 -0.02,0.02 -0.011,0.01 0,0"
   id="path345"
   inkscape:connector-curvature="0"
   style="fill:#3a7ead" />
        </g>
      </g>
      <g
   clip-path="url(#aj)"
   id="g359">
        <g
   transform="translate(136.03,157.4)"
   id="g353">
          <path
   d="m 0,0 -40.761,37.933 c 0.004,0.005 0.021,0.03 0.05,0.066 0.028,0.037 0.069,0.087 0.122,0.145 0.053,0.057 0.117,0.124 0.193,0.193 0.076,0.069 0.164,0.142 0.262,0.214 L 0.876,0.909 C 0.742,0.801 0.621,0.692 0.515,0.589 0.41,0.486 0.319,0.39 0.245,0.305 0.17,0.221 0.112,0.148 0.071,0.096 0.03,0.043 0.006,0.009 0,0"
   id="path351"
   inkscape:connector-curvature="0"
   style="fill:#3a7ead" />
        </g>
        <g
   transform="translate(136.9,158.31)"
   id="g357">
          <path
   d="m 0,0 -41.011,37.642 c 0.055,0.04 0.114,0.08 0.176,0.118 0.062,0.038 0.127,0.075 0.195,0.11 0.069,0.035 0.141,0.068 0.216,0.098 0.075,0.03 0.153,0.057 0.235,0.081 0.214,0.062 0.4,0.103 0.583,0.123 0.182,0.019 0.36,0.018 0.558,0 0.198,-0.019 0.416,-0.056 0.677,-0.109 0.262,-0.052 0.566,-0.122 0.937,-0.203 0.371,-0.082 5.539,0.742 12.914,1.986 7.158,1.208 16.269,2.79 25.034,4.312 8.444,1.467 16.579,2.88 22.545,3.885 5.807,0.978 9.661,1.587 9.868,1.5 L 91.558,23.572 c -0.223,0.093 -4.72,-1.05 -11.56,-2.865 C 72.904,18.825 63.11,16.173 52.803,13.381 41.95,10.441 30.498,7.341 21.381,4.918 11.87,2.391 5.137,0.665 4.665,0.73 4.192,0.795 3.805,0.851 3.472,0.89 3.138,0.929 2.859,0.952 2.604,0.954 2.349,0.955 2.118,0.935 1.879,0.886 1.64,0.837 1.394,0.76 1.109,0.649 1.001,0.607 0.896,0.562 0.795,0.512 0.695,0.462 0.598,0.409 0.505,0.354 0.413,0.298 0.324,0.24 0.24,0.181 0.156,0.122 0.076,0.062 0,0"
   id="path355"
   inkscape:connector-curvature="0"
   style="fill:#4c9dd7" />
        </g>
      </g>
      <g
   clip-path="url(#ak)"
   id="g373">
        <g
   transform="translate(129.64,123.2)"
   id="g363">
          <path
   d="m 0,0 -37.471,46.643 c -0.388,0.484 -0.782,1.03 -1.163,1.641 -0.382,0.613 -0.75,1.292 -1.085,2.039 -0.336,0.751 -0.639,1.57 -0.889,2.46 -0.25,0.894 -0.447,1.859 -0.57,2.898 -0.245,2.071 -0.145,4.005 0.15,5.747 0.297,1.751 0.79,3.303 1.327,4.608 0.538,1.309 1.12,2.366 1.591,3.128 0.471,0.762 0.833,1.227 0.931,1.351 0.096,0.12 0.143,0.239 0.179,0.361 0.035,0.123 0.057,0.25 0.103,0.388 0.045,0.137 0.113,0.285 0.24,0.449 0.126,0.163 0.311,0.343 0.589,0.545 L 4.187,34.161 C 3.804,33.854 3.545,33.589 3.364,33.353 3.183,33.115 3.08,32.908 3.007,32.717 2.935,32.526 2.894,32.352 2.836,32.182 2.779,32.012 2.705,31.846 2.569,31.672 2.428,31.492 1.912,30.82 1.223,29.734 0.535,28.648 -0.324,27.151 -1.149,25.324 -1.972,23.502 -2.759,21.356 -3.305,18.977 -3.847,16.612 -4.148,14.026 -4.01,11.314 -3.941,9.958 -3.769,8.712 -3.521,7.57 -3.274,6.436 -2.953,5.403 -2.582,4.469 -2.213,3.54 -1.796,2.707 -1.356,1.963 -0.918,1.223 -0.458,0.57 0,0"
   id="path361"
   inkscape:connector-curvature="0"
   style="fill:#3a7ead" />
        </g>
        <g
   transform="translate(133.83,157.37)"
   id="g367">
          <path
   d="m 0,0 -40.255,38.097 c 0.009,0.007 0.019,0.012 0.028,0.019 0.009,0.007 0.019,0.014 0.028,0.021 0.009,0.006 0.019,0.012 0.028,0.019 l 0.029,0.021 c 0.101,0.068 0.201,0.118 0.297,0.152 0.097,0.034 0.191,0.052 0.281,0.059 0.089,0.006 0.176,0 0.257,-0.015 0.082,-0.014 0.159,-0.037 0.229,-0.064 L 1.559,0.431 C 1.468,0.46 1.371,0.481 1.266,0.49 1.161,0.5 1.048,0.497 0.93,0.478 0.812,0.458 0.688,0.422 0.558,0.364 0.429,0.307 0.294,0.228 0.156,0.122 0.142,0.111 0.128,0.102 0.115,0.091 0.102,0.081 0.089,0.07 0.076,0.061 0.063,0.05 0.05,0.04 0.038,0.03 0.025,0.02 0.012,0.01 0,0"
   id="path365"
   inkscape:connector-curvature="0"
   style="fill:#4c9dd7" />
        </g>
        <g
   transform="translate(135.38,157.8)"
   id="g371">
          <path
   d="m 0,0 -40.636,37.878 c 0.057,-0.023 0.111,-0.048 0.161,-0.075 0.049,-0.028 0.095,-0.056 0.135,-0.083 0.04,-0.029 0.076,-0.055 0.106,-0.08 0.03,-0.025 0.055,-0.046 0.074,-0.064 L 0.592,-0.349 C 0.569,-0.327 0.539,-0.3 0.502,-0.271 0.465,-0.241 0.421,-0.209 0.371,-0.177 0.321,-0.145 0.265,-0.111 0.203,-0.081 0.141,-0.051 0.073,-0.022 0,0"
   id="path369"
   inkscape:connector-curvature="0"
   style="fill:#3a7ead" />
        </g>
      </g>
      <g
   clip-path="url(#al)"
   id="g507">
        <g
   transform="translate(224.6,151.66)"
   id="g377">
          <path
   d="m 0,0 c -0.037,-0.238 -0.084,-0.477 -0.146,-0.707 -0.061,-0.231 -0.134,-0.455 -0.221,-0.665 -0.087,-0.21 -0.188,-0.406 -0.302,-0.581 -0.115,-0.175 -0.244,-0.328 -0.389,-0.453 -0.255,-0.219 -4.528,-1.718 -10.996,-3.92 -6.694,-2.279 -15.902,-5.367 -25.567,-8.609 -10.148,-3.404 -20.826,-6.985 -29.306,-9.87 -8.822,-3 -15.051,-5.173 -15.481,-5.482 -0.43,-0.309 -0.782,-0.564 -1.086,-0.776 -0.303,-0.212 -0.556,-0.381 -0.788,-0.52 -0.233,-0.138 -0.444,-0.245 -0.662,-0.333 -0.219,-0.088 -0.446,-0.156 -0.709,-0.218 -0.28,-0.063 -0.535,-0.081 -0.76,-0.072 -0.225,0.01 -0.421,0.046 -0.583,0.092 -0.162,0.045 -0.291,0.099 -0.381,0.143 -0.09,0.045 -0.142,0.079 -0.151,0.086 -0.01,-0.016 -0.063,-0.104 -0.154,-0.226 -0.091,-0.121 -0.22,-0.277 -0.381,-0.426 -0.162,-0.15 -0.355,-0.293 -0.577,-0.393 -0.221,-0.099 -0.469,-0.154 -0.74,-0.126 -0.407,0.043 -0.686,0.123 -0.885,0.224 -0.199,0.101 -0.317,0.222 -0.401,0.346 -0.084,0.125 -0.133,0.254 -0.197,0.37 -0.064,0.117 -0.142,0.221 -0.281,0.297 -0.14,0.076 -0.653,0.366 -1.355,0.915 -0.705,0.553 -1.604,1.372 -2.506,2.506 -0.911,1.145 -1.828,2.614 -2.553,4.458 -0.734,1.865 -1.272,4.114 -1.409,6.795 -0.137,2.712 0.164,5.298 0.706,7.663 0.545,2.379 1.332,4.525 2.155,6.347 0.825,1.827 1.685,3.324 2.373,4.41 0.688,1.086 1.204,1.758 1.345,1.938 0.141,0.18 0.215,0.35 0.273,0.526 0.058,0.176 0.101,0.357 0.18,0.557 0.08,0.199 0.195,0.417 0.398,0.668 0.203,0.25 0.493,0.532 0.923,0.86 0.285,0.217 0.554,0.323 0.796,0.36 0.242,0.035 0.459,10e-4 0.64,-0.062 0.181,-0.062 0.328,-0.153 0.433,-0.232 0.104,-0.078 0.166,-0.144 0.177,-0.156 0.01,0.014 0.063,0.089 0.156,0.202 0.094,0.112 0.227,0.261 0.397,0.424 0.17,0.162 0.377,0.338 0.617,0.501 0.24,0.164 0.513,0.316 0.816,0.432 0.285,0.11 0.531,0.187 0.769,0.236 0.239,0.049 0.47,0.07 0.726,0.069 0.254,-0.002 0.534,-0.026 0.867,-0.065 0.333,-0.039 0.721,-0.095 1.194,-0.159 0.471,-0.065 7.205,1.66 16.716,4.188 9.117,2.422 20.569,5.523 31.421,8.462 10.307,2.792 20.101,5.445 27.196,7.327 6.84,1.815 11.337,2.958 11.56,2.865 C 3.992,30.161 4.09,30.062 4.164,29.925 4.237,29.788 4.286,29.616 4.314,29.417 4.343,29.218 4.35,28.992 4.34,28.75 4.331,28.509 4.304,28.25 4.263,27.983 4.211,27.64 4.136,27.283 4.045,26.936 3.955,26.588 3.849,26.249 3.734,25.938 3.621,25.628 3.499,25.347 3.377,25.113 3.255,24.881 3.132,24.696 3.016,24.582 2.809,24.376 -1.711,23.001 -8.596,21.004 -15.736,18.933 -25.608,16.14 -36.013,13.247 -46.975,10.2 -58.567,7.034 -67.817,4.589 -77.479,2.036 -84.345,0.334 -84.867,0.476 c -0.296,0.08 -0.447,0.147 -0.532,0.203 -0.085,0.055 -0.103,0.099 -0.13,0.132 -0.027,0.032 -0.064,0.053 -0.189,0.063 -0.124,0.01 -0.336,0.009 -0.713,-0.003 -0.38,-0.01 -0.599,-0.08 -0.736,-0.192 -0.138,-0.113 -0.194,-0.267 -0.249,-0.445 -0.056,-0.176 -0.11,-0.377 -0.244,-0.583 -0.134,-0.205 -0.348,-0.415 -0.723,-0.612 -0.377,-0.195 -0.895,-0.5 -1.454,-1.024 -0.56,-0.525 -1.161,-1.269 -1.703,-2.343 -0.54,-1.072 -1.02,-2.47 -1.338,-4.296 -0.316,-1.815 -0.47,-4.045 -0.364,-6.778 0.105,-2.703 0.418,-4.722 0.85,-6.23 0.429,-1.496 0.976,-2.492 1.554,-3.153 0.575,-0.656 1.182,-0.984 1.735,-1.137 0.551,-0.152 1.05,-0.135 1.413,-0.099 0.359,0.037 0.569,-0.029 0.704,-0.134 0.135,-0.106 0.195,-0.251 0.255,-0.376 0.06,-0.125 0.119,-0.229 0.252,-0.251 0.133,-0.023 0.34,0.037 0.694,0.239 0.352,0.199 0.549,0.316 0.665,0.394 0.115,0.078 0.149,0.117 0.173,0.161 0.025,0.044 0.039,0.092 0.116,0.188 0.077,0.097 0.217,0.24 0.491,0.477 0.483,0.417 6.993,2.748 16.182,5.894 8.825,3.022 19.91,6.724 30.414,10.185 9.992,3.291 19.481,6.372 26.342,8.554 C -4.781,1.415 -0.45,2.733 -0.294,2.65 -0.207,2.603 -0.133,2.49 -0.075,2.329 -0.016,2.167 0.027,1.957 0.054,1.715 0.081,1.473 0.091,1.197 0.082,0.906 0.074,0.615 0.047,0.308 0,0"
   id="path375"
   inkscape:connector-curvature="0"
   style="fill:#2c6085" />
        </g>
        <g
   transform="translate(223.42,174.86)"
   id="g381">
          <path
   d="m 0,0 c 0,0 -78.896,-22.604 -83.521,-22.729 -0.709,-0.02 -0.625,0.625 -1.875,0.375 -1.31,-0.262 -0.5,-1.313 -1.687,-1.75 -0.18,-0.067 -1.347,-0.622 -1.75,-1.313 -0.875,-1.5 -1.796,-6.322 -1.584,-11 0.334,-7.333 1.334,-9.584 3.167,-11.167 0.282,-0.243 0.667,-0.666 0.667,-0.666 l 1.541,0.667 0.334,0.666 c 0,0 49.125,18.667 80.625,27 0,0 -0.834,5.666 -0.167,10.833 C -3.583,-3.917 0,0 0,0"
   id="path379"
   inkscape:connector-curvature="0"
   style="fill:#e0d1ba" />
        </g>
        <g
   transform="translate(133.21,143.87)"
   id="g385">
          <path
   d="m 0,0 c 0.302,2.558 0.846,4.668 1.373,5.571 0.403,0.692 1.571,1.246 1.75,1.313 1.188,0.437 0.377,1.488 1.688,1.75 1.25,0.25 1.166,-0.395 1.875,-0.375 4.625,0.125 83.521,22.729 83.521,22.729 0,0 -1.415,-1.546 -2.631,-3.976 0,0 -15.828,-3.066 -41.328,-10.191 C 8.99,6.411 0,0 0,0"
   id="path383"
   inkscape:connector-curvature="0"
   style="fill:#998c7d" />
        </g>
        <g
   transform="translate(136.83,126.61)"
   id="g389">
          <path
   d="m 0,0 c 0,0 -2.583,1.749 -3.25,5.499 -0.667,3.75 -1,12.335 1,17.334 0,0 -4.75,-3.5 -2.833,-17.417 0,0 3.416,-4.998 5.083,-5.416"
   id="path387"
   inkscape:connector-curvature="0"
   style="fill:#998c7d" />
        </g>
        <g
   transform="translate(134.9,149.79)"
   id="g393">
          <path
   d="m 0,0 c -0.156,0.156 -1,-0.969 -1,-0.969 0,0 -1.979,-5.543 -1.229,-12.376 0.75,-6.833 3.083,-9.416 3.583,-9.666 0.5,-0.25 1,-0.417 1,-0.417 0,0 0.5,0.001 0.334,0.417 -0.167,0.416 -0.584,0.25 -0.834,0.5 -0.25,0.25 -3,3.417 -3.417,9.25 -0.416,5.833 0.688,11.605 1.282,12.355 0,0 0.52,0.667 0.281,0.906"
   id="path391"
   inkscape:connector-curvature="0"
   style="fill:#635c51" />
        </g>
        <g
   transform="translate(218.94,162.69)"
   id="g397">
          <path
   d="M 0,0 -47.941,-13.249 -0.01,-0.329 Z"
   id="path395"
   inkscape:connector-curvature="0"
   style="fill:#998c7d" />
        </g>
        <g
   transform="translate(218.91,161.94)"
   id="g401">
          <path
   d="m 0,0 -18.912,-5.249 18.909,4.917 z"
   id="path399"
   inkscape:connector-curvature="0"
   style="fill:#998c7d" />
        </g>
        <g
   transform="translate(108,184.61)"
   id="g405">
          <path
   d="m 0,0 -0.292,-0.542 c 0,0 -0.324,0.203 -0.714,0.287 l 26.593,-24.782 0.746,0.995 c 0,0 0.021,0.01 0.048,0.022 L 0.117,0.19 C 0.079,0.126 0.037,0.065 0,0"
   id="path403"
   inkscape:connector-curvature="0"
   style="fill:#2c6085" />
        </g>
        <g
   transform="translate(105.88,183.89)"
   id="g409">
          <path
   d="m 0,0 25.177,-23.911 c 0.286,0.102 1.173,0.354 1.898,-0.163 l 0.625,-0.25 0.004,0.005 L 1.111,0.463 C 0.719,0.547 0.267,0.495 0,0"
   id="path407"
   inkscape:connector-curvature="0"
   style="fill:#3a7ead" />
        </g>
        <g
   transform="translate(185.33,194.61)"
   id="g413">
          <path
   d="m 0,0 -56.667,1.001 c 0,0 -14.8,-0.991 -20.55,-10.81 l 26.264,-24.21 c 0.223,0.107 1.322,0.603 2.328,0.603 1.125,0 2.375,0 3.5,0.25 C -44,-32.916 38,-21.334 0,0"
   id="path411"
   inkscape:connector-curvature="0"
   style="fill:#3a7ead" />
        </g>
        <g
   transform="translate(105.83,183.82)"
   id="g417">
          <path
   d="m 0,0 c 0,0 -4.125,-34.125 25.125,-23.875 0,0 0.042,0.017 0.102,0.038 L 0.05,0.074 C 0.034,0.046 0.014,0.031 0,0"
   id="path415"
   inkscape:connector-curvature="0"
   style="fill:#2c6085" />
        </g>
        <g
   transform="translate(209.58,262.2)"
   id="g421">
          <path
   d="M 0,0 C 10.75,-6 -0.75,-32.5 -0.75,-32.5 L 1.5,-41.25 C 18.5,-15.75 11.25,2 7,4.5 5.744,5.239 0.25,6.25 -2.25,6.75 -11.089,8.518 -21,-3.75 -21,-3.75 l 12.25,-2.5 c 0,0 7.25,8.5 12.75,7"
   id="path419"
   inkscape:connector-curvature="0"
   style="fill:#422d25" />
        </g>
        <g
   transform="translate(216.42,266.53)"
   id="g425">
          <path
   d="m 0,0 c 0,0 0.723,-0.022 -0.583,0.417 -2.209,0.743 -6.144,1.581 -8.5,2 -3.75,0.666 -9.584,-2.167 -10.417,-3.834 -0.417,-0.833 6.417,-3 7.667,-2.166 C -10.157,-2.465 -6.25,0.667 0,0"
   id="path423"
   inkscape:connector-curvature="0"
   style="fill:#51372f" />
        </g>
        <g
   transform="translate(194.78,261.37)"
   id="g429">
          <path
   d="m 0,0 c 0,0 6.722,7.578 14.389,7.078 l 4.666,-0.834 c 0,0 -7.666,0.334 -14,-7.5 z"
   id="path427"
   inkscape:connector-curvature="0"
   style="fill:#c1b3a5" />
        </g>
        <g
   transform="translate(215.81,245.09)"
   id="g433">
          <path
   d="m 0,0 c -0.921,-3.979 -2.521,-8.624 -5.002,-13.233 2.273,1.092 3.76,2.152 4.73,3.052 C 0.434,-6.179 0.72,-2.405 1.165,1.295 0.857,0.879 0.474,0.445 0,0"
   id="path431"
   inkscape:connector-curvature="0"
   style="fill:#422d25" />
        </g>
        <g
   transform="translate(166.34,184.2)"
   id="g437">
          <path
   d="m 0,0 c -11.5,-2 -19.171,1.658 -18.5,3 0.75,1.5 5.75,0.25 14.75,1.75 C 5.25,6.25 9,5.5 9,5.5 9,5.5 11.5,2 0,0 m 13,25.416 c -13.791,-1.802 -24.264,2.953 -32.047,9.001 -35.298,1.142 -49.195,7.904 -53.771,11.017 3.704,-12.569 12.824,-27.799 35.231,-36.795 0,0 -6.58,-12.389 24.92,-12.389 31.5,0 24.29,11.738 24.29,11.738 0,0 14.168,3.004 25.041,16.422 5.659,6.984 8.793,13.1 10.642,18.681 C 45.637,41.904 42.954,40.5 38.665,39.162 32.881,32.442 24.601,26.933 13,25.416"
   id="path435"
   inkscape:connector-curvature="0"
   style="fill:#422d25" />
        </g>
        <g
   transform="translate(140.19,225.09)"
   id="g441">
          <path
   d="m 0,0 c -4.559,4.792 -7.689,9.273 -9.665,11.166 -27.667,2.358 -36.661,8.141 -39.502,12.176 -0.013,-0.217 -0.021,-0.437 -0.021,-0.657 0,-2.342 0.093,-5.986 0.772,-10.36 C -45.834,8.799 -36.158,1.746 0,0"
   id="path439"
   inkscape:connector-curvature="0"
   style="fill:#422d25" />
        </g>
        <g
   transform="translate(90.837,239.42)"
   id="g445">
          <path
   d="M 0,0 -0.002,0.022 C -0.002,0.022 -0.001,0.013 0,0"
   id="path443"
   inkscape:connector-curvature="0"
   style="fill:#c1b3a5" />
        </g>
        <g
   transform="translate(140.19,225.09)"
   id="g449">
          <path
   d="m 0,0 c -36.158,1.746 -45.834,8.799 -48.416,12.325 0.374,-2.406 0.93,-5.034 1.742,-7.79 C -42.097,1.422 -28.2,-5.34 7.097,-6.482 4.42,-4.402 2.065,-2.171 0,0"
   id="path447"
   inkscape:connector-curvature="0"
   style="fill:#a19589" />
        </g>
        <g
   transform="translate(210.81,231.85)"
   id="g453">
          <path
   d="m 0,0 c -1.566,-2.91 -3.486,-5.798 -5.808,-8.495 4.289,1.337 6.973,2.742 8.641,3.929 C 3.711,-1.918 4.299,0.609 4.73,3.052 3.761,2.152 2.273,1.092 0,0"
   id="path451"
   inkscape:connector-curvature="0"
   style="fill:#a19589" />
        </g>
        <g
   transform="translate(216.62,249.63)"
   id="g457">
          <path
   d="m 0,0 c -0.164,-1.365 -0.433,-2.896 -0.813,-4.542 0.473,0.446 0.857,0.88 1.164,1.296 l 0.027,0.231 C 0.493,-2.078 0.392,-1.06 0,0"
   id="path455"
   inkscape:connector-curvature="0"
   style="fill:#c1b3a5" />
        </g>
        <g
   transform="translate(130.53,236.26)"
   id="g461">
          <path
   d="m 0,0 c -0.063,0.06 -0.13,0.131 -0.19,0.186 -5.334,4.833 -11.833,5.333 -17.333,6.666 -5.5,1.333 -15.667,4.334 -18.834,9.5 -0.87,1.419 0.696,3.116 3.413,4.83 -4.64,-2.547 -6.366,-5.628 -6.558,-9.005 C -36.661,8.141 -27.667,2.359 0,0"
   id="path459"
   inkscape:connector-curvature="0"
   style="fill:#a19589" />
        </g>
        <g
   transform="translate(162.58,188.95)"
   id="g465">
          <path
   d="m 0,0 c -9,-1.5 -14,-0.25 -14.75,-1.75 -0.671,-1.342 7,-5 18.5,-3 11.5,2 9,5.5 9,5.5 C 12.75,0.75 9,1.5 0,0"
   id="path463"
   inkscape:connector-curvature="0"
   style="fill:#51372f" />
        </g>
        <g
   transform="translate(158.84,235.2)"
   id="g469">
          <path
   d="m 0,0 c -11.132,0 -20.466,0.396 -28.31,1.064 1.977,-1.892 5.107,-6.373 9.665,-11.165 5.296,-0.255 11.152,-0.399 17.645,-0.399 30.972,0 45.842,3.731 52.972,7.157 2.481,4.61 4.081,9.254 5.003,13.233 C 52.303,5.497 38.725,0 0,0"
   id="path467"
   inkscape:connector-curvature="0"
   style="fill:#51372f" />
        </g>
        <g
   transform="translate(147.29,218.61)"
   id="g473">
          <path
   d="M 0,0 C 7.783,-6.048 18.257,-10.803 32.047,-9.001 43.648,-7.484 51.928,-1.975 57.712,4.745 49.425,2.161 35.141,-0.167 10.547,-0.167 6.833,-0.167 3.325,-0.107 0,0"
   id="path471"
   inkscape:connector-curvature="0"
   style="fill:#51372f" />
        </g>
        <g
   transform="translate(140.19,225.09)"
   id="g477">
          <path
   d="m 0,0 c 2.065,-2.171 4.42,-4.402 7.097,-6.482 3.325,-0.107 6.833,-0.167 10.548,-0.167 24.593,0 38.877,2.328 47.164,4.912 2.321,2.697 4.242,5.586 5.808,8.495 -7.13,-3.425 -22,-7.157 -52.972,-7.157 C 11.151,-0.399 5.296,-0.255 0,0"
   id="path475"
   inkscape:connector-curvature="0"
   style="fill:#c1b3a5" />
        </g>
        <g
   transform="translate(215.81,245.09)"
   id="g481">
          <path
   d="M 0,0 C 0.381,1.645 0.649,3.176 0.813,4.542 0.508,5.368 0.023,6.219 -0.677,7.077 -1.917,2.909 -7.7,-3.316 -31.975,-4.307 c 0,0 -5.333,16.666 -5.666,18.333 -0.334,1.667 5.166,1.334 8.5,1.167 2.885,-0.144 5.766,1.08 8.111,1.089 -9.412,1.962 -22.486,3.244 -40.444,3.244 -32.207,0 -48.782,-2.796 -56.754,-7.17 -2.717,-1.714 -4.283,-3.41 -3.413,-4.83 3.166,-5.166 13.333,-8.167 18.833,-9.5 5.5,-1.333 12,-1.833 17.333,-6.666 0.061,-0.055 0.128,-0.126 0.191,-0.186 7.844,-0.669 17.177,-1.064 28.309,-1.064 C -18.25,-9.89 -4.671,-4.394 0,0"
   id="path479"
   inkscape:connector-curvature="0"
   style="fill:#c1b3a5" />
        </g>
        <g
   transform="translate(178.17,259.11)"
   id="g485">
          <path
   d="m 0,0 c 0.333,-1.667 5.667,-18.333 5.667,-18.333 24.274,0.991 30.058,7.216 31.297,11.383 C 34.23,-3.602 28.2,-0.159 16.611,2.256 14.267,2.247 11.385,1.022 8.5,1.167 5.167,1.334 -0.333,1.667 0,0"
   id="path483"
   inkscape:connector-curvature="0"
   style="fill:#a19589" />
        </g>
        <g
   transform="translate(204.4,243.82)"
   id="g489">
          <path
   d="m 0,0 c 1.667,2.667 -26.729,4.625 -47.396,5.292 -20.667,0.666 -50,-2.021 -46.667,-5.355 0,0 19.324,-4.645 43.334,-4.645 C -14.688,-4.708 0,0 0,0"
   id="path487"
   inkscape:connector-curvature="0"
   style="fill:#3e3221" />
        </g>
        <g
   transform="translate(130.34,245.95)"
   id="g493">
          <path
   d="m 0,0 c 2.287,-0.571 -8.667,-2.5 -3,-4 5.667,-1.5 26.833,4 29.5,2.667 2.667,-1.334 -15.667,-4.834 -6,-5.5 9.145,-0.631 54.167,1 35.833,5.5 -18.333,4.5 -19.5,-0.5 -23.833,1.5 -4.333,2 -4,3.187 -23,2.666 C -2.667,2.5 -12.666,0.5 -13.833,-0.167 -15,-0.833 -2.667,0.667 0,0"
   id="path491"
   inkscape:connector-curvature="0"
   style="fill:#734b27" />
        </g>
            <g
   clip-path="url(#am)"
   id="g499"
   style="opacity:0.5">
              <g
   transform="translate(130.17,243.28)"
   id="g497">
                <path
   d="m 0,0 c -7.976,-0.916 29.998,24.668 20,52.667 -6.124,17.148 -46.668,25.334 -30.667,54 12.063,21.608 37.637,30.992 42.665,32.667 2,0.667 -24.666,-16.667 -16,-34.001 C 24.665,87.993 69.785,65.645 59.332,35.327 52.666,15.994 40.665,4.661 0,-0.007"
   id="path495"
   inkscape:connector-curvature="0"
   style="fill:#ada090" />
              </g>
            </g>
            <g
   clip-path="url(#an)"
   id="g505"
   style="opacity:0.5">
              <g
   transform="translate(179.5,245.28)"
   id="g503">
                <path
   d="m 0,0 c 0,0 -54.668,0.001 -60.668,24.667 -6,24.667 70.667,23.334 56.001,64.666 -7.474,21.064 -14.666,20.667 -14.666,20.667 0,0 49.36,-8.538 48,-48 C 28,42.667 -19.335,40.001 -16.668,22.667 -14.001,5.334 0,0 0,0"
   id="path501"
   inkscape:connector-curvature="0"
   style="fill:#ada090" />
              </g>
            </g>
      </g>
  </g>
</svg>