<?xml version="1.0" encoding="UTF-8" standalone="no"?>
<svg
   xmlns:dc="http://purl.org/dc/elements/1.1/"
   xmlns:cc="http://creativecommons.org/ns#"
   xmlns:rdf="http://www.w3.org/1999/02/22-rdf-syntax-ns#"
   xmlns:svg="http://www.w3.org/2000/svg"
   xmlns="http://www.w3.org/2000/svg"
   xmlns:sodipodi="http://sodipodi.sourceforge.net/DTD/sodipodi-0.dtd"
   xmlns:inkscape="http://www.inkscape.org/namespaces/inkscape"
   width="26.458332mm"
   height="20.232588mm"
   version="1.1"
   viewBox="0 0 93.749999 71.690271"
   id="svg22"
   sodipodi:docname="finish-flag.svg"
   inkscape:version="0.92.4 (f8dce91, 2019-08-02)">
  <metadata
     id="metadata28">
    <rdf:RDF>
      <cc:Work
         rdf:about="">
        <dc:format>image/svg+xml</dc:format>
        <dc:type
           rdf:resource="http://purl.org/dc/dcmitype/StillImage" />
        <dc:title></dc:title>
      </cc:Work>
    </rdf:RDF>
  </metadata>
  <defs
     id="defs26" />
  <sodipodi:namedview
     pagecolor="#ffffff"
     bordercolor="#666666"
     borderopacity="1"
     objecttolerance="10"
     gridtolerance="10"
     guidetolerance="10"
     inkscape:pageopacity="0"
     inkscape:pageshadow="2"
     inkscape:window-width="1920"
     inkscape:window-height="1043"
     id="namedview24"
     showgrid="false"
     fit-margin-top="0"
     fit-margin-left="0"
     fit-margin-right="0"
     fit-margin-bottom="0"
     inkscape:zoom="0.5"
     inkscape:cx="600.26731"
     inkscape:cy="446.40875"
     inkscape:window-x="2560"
     inkscape:window-y="0"
     inkscape:window-maximized="1"
     inkscape:current-layer="svg22" />
  <g
     transform="matrix(0.06968897,0.04048117,-0.04048117,0.06968897,16.971247,-31.455119)"
     id="g10">
    <path
       d="m 683.99,159.45 c -43.74,-0.11617 -102.97,9.9334 -152.96,20.541 -26.604,5.645 -50.456,11.409 -68.176,15.896 v 436.39 c 17.676,-4.4676 41.2,-10.143 67.449,-15.713 48.372,-10.264 105.29,-20.058 149.05,-20.6 1.5629,-0.0193 3.1083,-0.0263 4.6367,-0.0215 4.5853,0.0144 9.0117,0.1384 13.25,0.38281 63.99,3.6901 124.12,30.218 184.08,55.715 59.96,25.497 119.74,49.959 182.97,49.996 36.67,0.0215 90.22,-15.264 134.43,-30.602 11.747,-4.0752 22.753,-8.1261 32.709,-11.914 v -436.25 c -9.6465,3.658 -20.29,7.5609 -31.56,11.471 -44.355,15.387 -97.946,30.817 -135.58,30.795 -64.127,-0.0377 -124.35,-24.767 -184.33,-50.275 -59.988,-25.509 -119.76,-51.8 -182.91,-55.441 -4.1659,-0.24023 -8.524,-0.36103 -13.049,-0.37305 z"
       id="path2"
       inkscape:connector-curvature="0" />
    <path
       d="m 683.99,159.45 c -2.2335,-0.006 -4.5171,0.0226 -6.8281,0.0684 2.3104,-0.046 4.5953,-0.0743 6.8281,-0.0684 z m -7.8144,0.0859 c -2.2776,0.052 -4.5945,0.12954 -6.9395,0.22851 2.3465,-0.0995 4.6605,-0.17626 6.9395,-0.22851 z m -7.7461,0.26367 c -1.4784,0.0655 -2.9914,0.15706 -4.4941,0.24024 1.5025,-0.0835 3.016,-0.17448 4.4941,-0.24024 z m 33.908,0.38867 c 0.5244,0.041 1.0483,0.0851 1.5723,0.12891 -0.52394,-0.0438 -1.0479,-0.0882 -1.5723,-0.12891 z m -42.861,0.11328 c -1.4748,0.0967 -2.9662,0.20625 -4.4609,0.31836 1.495,-0.11255 2.9859,-0.22133 4.4609,-0.31836 z m 48.512,0.38672 c 0.45185,0.0443 0.904,0.088 1.3555,0.13477 -0.45149,-0.0468 -0.90366,-0.0902 -1.3555,-0.13477 z m -57.072,0.25391 c -1.6519,0.13735 -3.3139,0.28495 -4.9863,0.43945 1.6722,-0.15483 3.3346,-0.30176 4.9863,-0.43945 z m 63.465,0.44531 c 0.57152,0.0696 1.1419,0.1477 1.7129,0.22071 -0.57105,-0.0729 -1.1413,-0.15118 -1.7129,-0.22071 z m -72.039,0.33789 c -1.8784,0.18527 -3.7623,0.37702 -5.6621,0.58203 1.9001,-0.20535 3.7835,-0.39637 5.6621,-0.58203 z m 77.17,0.33789 c 0.73419,0.10265 1.4678,0.2083 2.2012,0.31641 -0.73333,-0.10799 -1.467,-0.21387 -2.2012,-0.31641 z m -85.541,0.54493 c -2.1697,0.24322 -4.3427,0.49103 -6.5352,0.75781 2.1915,-0.26673 4.3662,-0.51439 6.5352,-0.75781 z m 91.074,0.2832 c 0.60823,0.0961 1.2166,0.18902 1.8242,0.28906 -0.60755,-0.10008 -1.2161,-0.19262 -1.8242,-0.28906 z m 6.6387,1.1211 c 0.64299,0.11626 1.2854,0.23892 1.9277,0.35938 -0.64249,-0.12008 -1.2847,-0.24321 -1.9277,-0.35938 z m 5.0723,0.96289 c 0.7972,0.15715 1.5943,0.31374 2.3906,0.47656 -0.79627,-0.16281 -1.5935,-0.31956 -2.3906,-0.47656 z m 4.7598,0.97461 c 1.9573,0.4149 3.9129,0.84462 5.8652,1.293 -1.9524,-0.4482 -3.9079,-0.87835 -5.8652,-1.293 z m -140.98,1.1465 c -1.1943,0.18455 -2.3902,0.37714 -3.5859,0.5664 1.1954,-0.19001 2.3923,-0.38196 3.5859,-0.5664 z m 147.85,0.375 c 2.7718,0.64485 5.5384,1.321 8.3008,2.0293 -2.7623,-0.70806 -5.5291,-1.3848 -8.3008,-2.0293 z m -157.33,1.1367 c -1.3491,0.22153 -2.696,0.45095 -4.0449,0.67773 1.3486,-0.22704 2.6961,-0.45611 4.0449,-0.67773 z m 92.939,0.84179 c -19.544,-0.0519 -42.186,1.9358 -65.709,5.0859 v 61 c 23.523,-3.1502 46.165,-5.1378 65.709,-5.0859 1.1667,0.003 2.2895,0.035 3.4336,0.0527 v -61 c -1.1441,-0.0177 -2.2669,-0.0496 -3.4336,-0.0527 z m 72.914,0.10938 c 2.7073,0.69584 5.4105,1.4212 8.1094,2.1738 -2.6991,-0.75264 -5.4019,-1.4781 -8.1094,-2.1738 z m -175.16,0.62109 c -1.4494,0.25075 -2.8946,0.50574 -4.3418,0.76172 1.4462,-0.25583 2.8933,-0.51115 4.3418,-0.76172 z m -9.4746,1.6797 c -1.4402,0.26113 -2.8767,0.52356 -4.3125,0.78906 1.4351,-0.26525 2.8729,-0.52815 4.3125,-0.78906 z m -9.584,1.7773 c -1.3222,0.25013 -2.6444,0.4988 -3.9609,0.75195 1.3161,-0.25302 2.639,-0.50209 3.9609,-0.75195 z m -9.1738,1.7676 c -1.3695,0.26879 -2.7442,0.53337 -4.1055,0.80469 1.3615,-0.27091 2.7364,-0.53609 4.1055,-0.80469 z m 229.03,1.5938 c 2.8604,0.91936 5.7171,1.8645 8.5703,2.834 -2.853,-0.96927 -5.71,-1.9147 -8.5703,-2.834 z m -241.97,1 c -2.8861,0.59351 -5.7397,1.1918 -8.5723,1.791 2.8326,-0.59921 5.6862,-1.1975 8.5723,-1.791 z m -9.5391,1.9922 c -4.4416,0.94246 -8.7724,1.8855 -13.045,2.8281 4.2719,-0.94238 8.604,-1.8858 13.045,-2.8281 z m -16.463,3.5859 c -2.0221,0.45045 -3.9536,0.89237 -5.9297,1.3398 1.9713,-0.44635 3.9125,-0.89053 5.9297,-1.3398 z m 259.14,0.67579 v 61 c 23.257,6.9954 46.238,15.882 69.143,25.355 v -61 c -22.905,-9.4732 -45.885,-18.36 -69.143,-25.355 z m -277.52,3.5273 c -1.4663,0.34298 -2.9242,0.68108 -4.3555,1.0195 1.4203,-0.3358 2.9007,-0.67927 4.3555,-1.0195 z m 35.805,2.0098 c -0.31945,0.0676 -0.6481,0.13354 -0.9668,0.20117 -26.604,5.645 -50.456,11.409 -68.176,15.896 v 61 c 17.72,-4.4873 41.572,-10.251 68.176,-15.896 0.3187,-0.0676 0.64735,-0.1336 0.9668,-0.20117 z m 288.15,0.6875 c 1.7601,0.68495 3.5208,1.368 5.2793,2.0644 -1.7587,-0.69648 -3.519,-1.3793 -5.2793,-2.0644 z m 22.789,9.1641 c 2.7404,1.1335 5.4802,2.2739 8.2188,3.4219 -2.7386,-1.1482 -5.4783,-2.2883 -8.2188,-3.4219 z m 9.0996,3.791 c 3.7496,1.5739 7.4981,3.1608 11.246,4.75 -3.7478,-1.5904 -7.4966,-3.1761 -11.246,-4.75 z m -156.04,37.346 v 61 c 0.3425,0.018 0.70302,0.0253 1.043,0.0449 23.094,1.3317 45.734,5.6998 68.1,11.943 v -61 c -22.365,-6.2436 -45.006,-10.612 -68.1,-11.943 -0.33995,-0.0196 -0.70047,-0.0269 -1.043,-0.0449 z m 233.14,4.6699 v 61 c 22.806,8.802 45.787,16.576 69.143,22.008 v -61 c -23.356,-5.432 -46.336,-13.206 -69.143,-22.008 z m -319.43,1.2734 c -23.142,3.3401 -46.872,7.6975 -69.143,12.277 v 61 c 22.271,-4.5799 46.001,-8.9372 69.143,-12.277 z m 392.35,11.588 c 0.282,0.0623 0.5636,0.12592 0.8457,0.1875 -0.282,-0.0617 -0.5638,-0.12512 -0.8457,-0.1875 z m 151.65,1.1504 c -23.878,6.8661 -47.972,12.462 -69.143,14.838 v 61 c 21.171,-2.3763 45.265,-7.9718 69.143,-14.838 z m -302.29,24.717 v 61 c 9.5116,3.9892 19.015,8.0447 28.523,12.088 13.513,5.7462 27.04,11.436 40.619,16.83 v -61 c -13.579,-5.3937 -27.106,-11.084 -40.619,-16.83 -9.5082,-4.0432 -19.012,-8.0987 -28.523,-12.088 z m 380,20.098 c -9.6465,3.658 -20.29,7.5609 -31.56,11.471 -12.015,4.1682 -24.712,8.3289 -37.582,12.195 v 61 c 12.87,-3.8664 25.567,-8.0272 37.582,-12.195 11.27,-3.9098 21.914,-7.8128 31.56,-11.471 z m -547.43,7.1758 c -19.544,-0.0519 -42.186,1.9358 -65.709,5.0859 v 61 c 23.523,-3.1502 46.165,-5.1378 65.709,-5.0859 1.1667,0.003 2.2895,0.035 3.4336,0.0527 v -61 c -1.1441,-0.0178 -2.2669,-0.0496 -3.4336,-0.0527 z m 89.721,14.803 v 61 c 23.257,6.9954 46.238,15.882 69.143,25.355 v -61 c -22.905,-9.4732 -45.885,-18.36 -69.143,-25.355 z m -241.71,5.5371 c -0.31945,0.0676 -0.6481,0.13354 -0.9668,0.20117 -26.604,5.645 -50.456,11.409 -68.176,15.896 v 61 c 17.72,-4.4873 41.572,-10.251 68.176,-15.896 0.3187,-0.0676 0.64735,-0.1336 0.9668,-0.20117 z m 474.86,8.5469 v 61 c 18.852,3.8941 37.959,6.1917 57.428,6.2031 3.7528,0.002 7.6697,-0.15562 11.715,-0.44532 v -61 c -4.0451,0.2897 -7.962,0.44752 -11.715,0.44532 -19.469,-0.0115 -38.576,-2.309 -57.428,-6.2031 z m -310.86,42.441 v 61 c 0.3425,0.018 0.70302,0.0253 1.043,0.0449 23.094,1.3317 45.734,5.6998 68.1,11.943 v -61 c -22.365,-6.2436 -45.006,-10.612 -68.1,-11.943 -0.33995,-0.0196 -0.70047,-0.0269 -1.043,-0.0449 z m 233.14,4.6699 v 61 c 22.806,8.802 45.787,16.576 69.143,22.008 v -61 c -23.356,-5.432 -46.336,-13.206 -69.143,-22.008 z m -319.43,1.2734 c -23.142,3.3401 -46.872,7.6975 -69.143,12.277 v 61 c 22.271,-4.5799 46.001,-8.9372 69.143,-12.277 z m 544,12.738 c -23.878,6.8661 -47.972,12.462 -69.143,14.838 v 61 c 21.171,-2.3763 45.265,-7.9718 69.143,-14.838 z m -302.29,24.717 v 61 c 9.5116,3.9892 19.015,8.0447 28.523,12.088 13.513,5.7462 27.04,11.436 40.619,16.83 v -61 c -13.579,-5.3937 -27.106,-11.084 -40.619,-16.83 -9.5082,-4.0432 -19.012,-8.0987 -28.523,-12.088 z m 380,20.098 c -9.6465,3.658 -20.29,7.5609 -31.56,11.471 -12.015,4.1682 -24.712,8.3289 -37.582,12.195 v 61 c 12.87,-3.8664 25.567,-8.0272 37.582,-12.195 11.27,-3.9098 21.914,-7.8128 31.56,-11.471 z m -547.43,7.1758 c -19.544,-0.0519 -42.186,1.9358 -65.709,5.0859 v 61 c 23.523,-3.1502 46.165,-5.1378 65.709,-5.0859 1.1667,0.003 2.2895,0.035 3.4336,0.0527 v -61 c -1.1441,-0.0178 -2.2669,-0.0496 -3.4336,-0.0527 z m 89.721,14.803 v 61 c 23.257,6.9954 46.238,15.882 69.143,25.355 v -61 c -22.905,-9.4732 -45.885,-18.36 -69.143,-25.355 z m -241.71,5.5371 c -0.31945,0.0676 -0.6481,0.13354 -0.9668,0.20117 -26.604,5.645 -50.456,11.409 -68.176,15.896 v 61 c 17.72,-4.4873 41.572,-10.251 68.176,-15.896 0.3187,-0.0676 0.64735,-0.1336 0.9668,-0.20117 z m 474.86,8.5469 v 61 c 18.852,3.8941 37.959,6.1917 57.428,6.2031 3.7528,0.002 7.6697,-0.15562 11.715,-0.44532 v -61 c -4.0451,0.2897 -7.962,0.44752 -11.715,0.44532 -19.469,-0.0115 -38.576,-2.309 -57.428,-6.2031 z m -310.86,42.441 v 61 c 0.3425,0.018 0.70302,0.0253 1.043,0.0449 23.094,1.3317 45.734,5.6998 68.1,11.943 v -61 c -22.365,-6.2436 -45.006,-10.612 -68.1,-11.943 -0.33995,-0.0196 -0.70047,-0.0269 -1.043,-0.0449 z m 233.14,4.6699 v 61 c 22.806,8.802 45.787,16.576 69.143,22.008 v -61 c -23.356,-5.432 -46.336,-13.206 -69.143,-22.008 z m -319.43,1.2734 c -23.142,3.3401 -46.872,7.6975 -69.143,12.277 v 61 c 22.271,-4.5799 46.001,-8.9372 69.143,-12.277 z m 544,12.738 c -23.878,6.8661 -47.972,12.462 -69.143,14.838 v 61 c 21.171,-2.3763 45.265,-7.9718 69.143,-14.838 z m -302.29,24.717 v 61 c 9.5116,3.9892 19.015,8.0447 28.523,12.088 13.513,5.7462 27.04,11.436 40.619,16.83 v -61 c -13.579,-5.3937 -27.106,-11.084 -40.619,-16.83 -9.5082,-4.0432 -19.012,-8.0987 -28.523,-12.088 z m 380,20.098 c -9.6465,3.658 -20.29,7.5609 -31.56,11.471 -12.015,4.1682 -24.712,8.3289 -37.582,12.195 v 61 c 12.87,-3.8664 25.567,-8.0272 37.582,-12.195 11.27,-3.9098 21.914,-7.8128 31.56,-11.471 z m -547.43,7.1758 c -19.544,-0.0519 -42.186,1.9358 -65.709,5.0859 v 0.44727 c 21.616,-2.8838 42.53,-4.7861 61.072,-5.0156 1.5629,-0.0193 3.1083,-0.0263 4.6367,-0.0215 1.1652,0.004 2.2894,0.0347 3.4336,0.0527 v -0.49609 c -1.1441,-0.0177 -2.2669,-0.0496 -3.4336,-0.0527 z m 12.006,0.32813 v 0.49804 c 0.4094,0.0212 0.83817,0.0293 1.2441,0.0527 23.078,1.3308 45.652,5.6428 67.898,11.795 v -0.35742 c -22.365,-6.2436 -45.006,-10.612 -68.1,-11.943 -0.33995,-0.0196 -0.70047,-0.0269 -1.043,-0.0449 z m -86.285,5.9434 c -23.142,3.3401 -46.872,7.6975 -69.143,12.277 v 0.42969 c 22.287,-4.5761 45.987,-8.9214 69.143,-12.254 v -0.45312 z m 164,8.5312 v 0.32617 c 23.321,6.9546 46.299,15.809 69.143,25.238 v -0.20898 c -22.905,-9.4732 -45.885,-18.36 -69.143,-25.355 z m -241.71,5.5371 c -0.31945,0.0676 -0.6481,0.13354 -0.9668,0.20117 -26.604,5.645 -50.456,11.409 -68.176,15.896 v 0.39258 c 17.676,-4.4676 41.2,-10.143 67.449,-15.713 0.55862,-0.11853 1.1325,-0.23512 1.6934,-0.35352 v -0.42382 z m 474.86,8.5469 v 61 c 18.852,3.8941 37.959,6.1917 57.428,6.2031 3.7528,0.002 7.6697,-0.15562 11.715,-0.44532 v -61 c -4.0451,0.2897 -7.962,0.44752 -11.715,0.44532 -19.469,-0.0114 -38.576,-2.309 -57.428,-6.2031 z m -155.43,14.84 v 0.20118 c 9.9794,4.1801 19.939,8.4336 29.893,12.666 13.079,5.5615 26.151,11.055 39.25,16.275 v -0.22461 c -13.579,-5.3937 -27.106,-11.084 -40.619,-16.83 -9.5082,-4.0432 -19.012,-8.0987 -28.523,-12.088 z m 380,20.098 c -9.6465,3.658 -20.29,7.5609 -31.56,11.471 -12.015,4.1682 -24.712,8.3289 -37.582,12.195 v 0.32812 c 12.472,-3.7563 24.779,-7.787 36.434,-11.83 11.747,-4.0752 22.753,-8.1261 32.709,-11.914 v -0.25 z m -302.29,12.174 v 0.24414 c 22.868,8.861 45.849,16.68 69.143,22.156 v -0.39258 c -23.356,-5.432 -46.336,-13.206 -69.143,-22.008 z m 224.57,14.012 c -23.878,6.8661 -47.972,12.462 -69.143,14.838 v 0.46484 c 21.026,-2.4154 45.186,-8.055 69.143,-14.965 v -0.33789 z m -155.33,8.4121 c 1.2567,0.29505 2.5149,0.58203 3.7735,0.86328 -1.2586,-0.28165 -2.5171,-0.56828 -3.7735,-0.86328 z m 8.4707,1.4648 v 0.41797 c 18.888,3.9475 37.995,6.2738 57.43,6.2852 3.7359,0.002 7.6543,-0.16151 11.713,-0.46094 v -0.48438 c -4.0451,0.2897 -7.962,0.44752 -11.715,0.44532 -19.469,-0.0114 -38.576,-2.309 -57.428,-6.2031 z m 77.678,5.4297 c -1.3959,0.16014 -2.777,0.30591 -4.1446,0.4375 1.3669,-0.1311 2.7489,-0.27739 4.1446,-0.4375 z m -4.4004,0.46094 c -1.3643,0.1296 -2.7139,0.24476 -4.0469,0.34375 1.3331,-0.099 2.6829,-0.2146 4.0469,-0.34375 z"
       id="path4"
       inkscape:connector-curvature="0"
       style="fill:#ffffff" />
    <rect
       x="1226.3"
       y="227.22"
       width="5.7143002"
       height="428.57001"
       id="rect6" />
    <rect
       x="455.70999"
       y="186.64999"
       width="20"
       height="1017.1"
       id="rect8" />
  </g>
</svg>
