<?xml version="1.0" encoding="UTF-8"?>
<svg viewBox="0 0 128 128" xmlns="http://www.w3.org/2000/svg" xmlns:xlink="http://www.w3.org/1999/xlink">
 <defs>
  <clipPath id="k">
   <path id="b" d="m55.8,12 .76.16c8.84-2.94 28.68,8.64 24.26,18.96-1.12,1.62-.93,4.5.42,6.31l-24.81,24.82c-1.39-1.39-4.48-1.36-5.9,0l-41.03,39.38c-3.74,3.59-.8,6.64.78,8.25l7.36,7.36c1.61,1.6 5.86,3.76 8.88.56l38.72-40.81c1.35-1.42 1.36-4.47 0-5.87 0,0 .01-.02 0-.02l24.91-24.9c2.63,2.37 5.11383,2.57485 7.47,1.93 4.55057-1.24543 7.08725,3.20664 9.81,6.46l-1.23,1.21c-1.82,1.84-1.65,4.94.39,6.98s5.15,2.21 6.97.39l8.14-8.13c1.82-1.84 1.65-4.94-.4-6.97-1.84-1.85-4.51-2.09-6.37-.77-5.58-6.26-2.65-7.2-10.01-15.35l-13.79-14.09c-9.93-9.74-22.83-9.73-35.33-5.86z"/>
  </clipPath>
  <linearGradient id="a">
   <stop stop-color="#fff" offset="0"/>
   <stop stop-color="#fff" stop-opacity="0" offset="1"/>
  </linearGradient>
  <linearGradient id="c">
   <stop offset="0"/>
   <stop stop-opacity="0" offset="1"/>
  </linearGradient>
  <linearGradient id="j" x1="2483" x2="2375.5" y1="6145.3" y2="6037.5" gradientUnits="userSpaceOnUse" xlink:href="#c"/>
  <linearGradient id="i" x1="577.03" x2="626.1" gradientTransform="matrix(.0775 .0775 -.36 .36 78.84 -44.8)" gradientUnits="userSpaceOnUse" xlink:href="#a"/>
  <linearGradient id="h" x2="0" y1="288.57" y2="368.27" gradientTransform="matrix(.3 .3 -.09 .09 78.84 -44.8)" gradientUnits="userSpaceOnUse" xlink:href="#a"/>
  <linearGradient id="g" x2="0" y1="62.74" y2="-1.72" gradientTransform="matrix(.33 .33 -.0944 .0944 9.03 -48.1)" gradientUnits="userSpaceOnUse" xlink:href="#a"/>
  <linearGradient id="f" x1="543.1" x2="419.88" gradientTransform="matrix(.0998 .0998 -.28 .28 78.84 -44.8)" gradientUnits="userSpaceOnUse" xlink:href="#c"/>
  <linearGradient id="e" x1="512.7" x2="615.59" y1="254.36" y2="254.83" gradientTransform="matrix(.0807 .0775 -.35 .36 77.14 -45.89)" gradientUnits="userSpaceOnUse" xlink:href="#a"/>
  <linearGradient id="d" x1="637.03" x2="638.3" y1="69.99" y2="118.3" gradientTransform="matrix(.1,.1,-.22,.2,75.6,-33.53)" gradientUnits="userSpaceOnUse" xlink:href="#a"/>
 </defs>
 <g transform="translate(-1.0132 -1.3509)">
  <use width="128" height="128" opacity=".25" stroke="#000" stroke-linejoin="round" stroke-width="8" xlink:href="#b"/>
  <use width="128" height="128" opacity=".5" stroke="#000" stroke-linejoin="round" stroke-width="4" xlink:href="#b"/>
  <path d="m82.92 35.75-29.45 29.45 8.83 8.83 29.45-29.44-8.83-8.84z" fill="#d3d7cf"/>
  <path d="m88.93 41.76-29.45 29.44 2.82 2.83 29.45-29.44-2.82-2.83z" fill="url(#j)" opacity=".5"/>
  <path d="m86.46 37.04-29.33 29.33 3.79 3.79 28.58-30.08-3.04-3.04z" fill="url(#i)"/>
  <path d="m55.8,12 .76.16c8.84-2.94 28.68,8.64 24.26,18.96-1.12,1.62-.93,4.5.42,6.31l8.91,8.77c2.63,2.37 5.11,2.57 7.47,1.93 4.55-1.23 7.08,3.2 9.81,6.46l-1.23,1.21c-1.82,1.84-1.65,4.94.39,6.98s5.15,2.21 6.97.39l8.14-8.13c1.82-1.84 1.65-4.94-.4-6.97-1.84-1.85-4.51-2.09-6.37-.77-5.58-6.26-2.65-7.2-10.01-15.35l-13.79-14.09c-9.93-9.74-22.83-9.73-35.33-5.86z" fill="#2e3436"/>
  <path d="m114.93 47.3c-5.58-6.26-2.65-7.2-10.01-15.35l-13.79-14.09c-5.69-5.58-12.36-7.96-19.36-8.26l41.13 41.53 2.9754-2.73-0.94535-1.1z" fill="url(#h)" opacity=".5"/>
  <path d="m81.45,28c.05,1-.17934,2-.65,3.12-1.1,1.62-.91,4.5.44,6.31l8.91,8.77c2.63,2.37 5.11,2.57 7.47,1.93 1.08-.33 2.06-.27 2.98,0 2.8.77-19.16-20.55-19.15-20.23v.1z" fill="url(#g)" opacity=".5"/>
  <path d="m56.43,62.25c-1.39-1.39-4.48-1.36-5.9,0l-41.03,39.38c-3.74,3.59-.82,6.64.78,8.25l7.36,7.36c1.61,1.6 5.86,3.76 8.88.56l38.72-40.81c1.35-1.42 1.36-4.47 0-5.87 0,0 .01-.02 0-.02l-8.81-8.85z" fill="#3465a4"/>
  <path d="m10.27,109.87 7.36,7.37c1.61,1.6 5.73,3.89 8.75.71l38.87-40.97c1.35-1.43 1.39-4.5 0-5.88l-8.83-8.84-46.15,47.61z" fill="url(#f)" opacity=".5"/>
  <path d="m51.2,65.7-38.88,38.04c-1.62,1.56-1.07,3.75.1,4.89l4.13,3.97 42.37-43.6-3.92-3.68c-.84-.8-2.8-.57-3.8.38z" fill="url(#e)" opacity=".5"/>
  <use width="128" height="128" clip-path="url(#k)" fill="none" stroke="#fff" stroke-linejoin="round" stroke-opacity=".2" stroke-width="4" xlink:href="#b"/>
  <path d="m120.45,49.26c1.51,1.44 1.8,3.44-.28,5.36l-3.87,3.63c-2.08,1.95-7.52-3.25-5.45-5.19l3.88-3.63c2.07-1.95 4.21-1.61 5.72-.17z" fill="url(#d)"/>
 </g>
</svg>
